<svg width="97" height="27" viewBox="0 0 97 27" fill="none" xmlns="http://www.w3.org/2000/svg">
<path d="M15.1429 11C15.3793 11 15.5714 10.7535 15.5714 10.45V6.6C14.6251 6.59893 13.858 5.6144 13.8571 4.4V2.2C13.858 0.985595 14.6251 0.00107367 15.5714 -4.76837e-07H17.2857C18.232 0.00107367 18.9992 0.985595 19 2.2V4.4C18.9992 5.6144 18.232 6.59893 17.2857 6.6V10.45C17.2845 11.9679 16.3256 13.1984 15.1429 13.2C14.9064 13.2 14.7143 13.4465 14.7143 13.75V22H13V13.75C13.0013 12.2321 13.9601 11.0016 15.1429 11ZM17.2857 4.4V2.2H15.5714V4.4H17.2857Z" fill="#FFC700" fill-opacity="0.26"/>
<path d="M7 26H9V24H7V26Z" fill="#FFC700" fill-opacity="0.26"/>
<path d="M2 -1.07288e-06H4C5.104 0.00105355 5.99902 0.967675 6 2.16V4.32C5.99902 5.51232 5.104 6.47894 4 6.48V27H2V6.48C0.895996 6.47894 0.000976562 5.51232 0 4.32V2.16C0.000976562 0.967675 0.895996 0.00105355 2 -1.07288e-06ZM2 4.32H4V2.16H2V4.32Z" fill="#FFC700" fill-opacity="0.26"/>
<path d="M26 3H28V0H26V3Z" fill="#FFC700" fill-opacity="0.26"/>
<path d="M24.5 15.5H26.5C26.7759 15.5 27 15.2647 27 14.975V5H29V14.975C28.9985 16.4239 27.8799 17.5985 26.5 17.6H24.5C24.2241 17.6 24 17.8353 24 18.125V21.275C24 21.5647 24.2241 21.8 24.5 21.8H28C28.001 20.6408 28.896 19.701 30 19.7H32C33.104 19.701 33.999 20.6408 34 21.8V23.9C33.999 25.0592 33.104 25.999 32 26H30C28.896 25.999 28.001 25.0592 28 23.9H24.5C23.1201 23.8985 22.0015 22.7239 22 21.275V18.125C22.0015 16.6761 23.1201 15.5015 24.5 15.5ZM30 23.9H32L32.0015 21.8H30V23.9Z" fill="#FFC700" fill-opacity="0.26"/>
<path d="M51 9.725C51 10.0147 51.2241 10.25 51.5 10.25C52.8799 10.2515 53.9985 11.4261 54 12.875V19.7C55.104 19.701 55.999 20.6408 56 21.8V23.9C55.999 25.0592 55.104 25.999 54 26H52C50.896 25.999 50.001 25.0592 50 23.9V21.8C50.001 20.6408 50.896 19.701 52 19.7V12.875C52 12.5853 51.7759 12.35 51.5 12.35C50.1201 12.3485 49.0015 11.1739 49 9.725V5H51V9.725ZM52 23.9H54V21.8H52V23.9Z" fill="#FFC700" fill-opacity="0.26"/>
<path d="M49 3H51V0H49V3Z" fill="#FFC700" fill-opacity="0.26"/>
<path d="M37.2857 14.85V6.6C36.024 6.59893 35.0011 5.6144 35 4.4V2.2C35.0011 0.985595 36.024 0.00107367 37.2857 -4.76837e-07H39.5714C40.8331 0.00107367 41.856 0.985595 41.8571 2.2V4.4C41.856 5.6144 40.8331 6.59893 39.5714 6.6V14.85C39.5714 15.1535 39.8276 15.4 40.1429 15.4C41.7199 15.4016 42.9983 16.6321 43 18.15V22H40.7143V18.15C40.7143 17.8465 40.4581 17.6 40.1429 17.6C38.5658 17.5984 37.2874 16.3679 37.2857 14.85ZM39.5714 2.2H37.2857V4.4H39.5714V2.2Z" fill="#FFC700" fill-opacity="0.26"/>
<path d="M41 26H43V24H41V26Z" fill="#FFC700" fill-opacity="0.26"/>
<path d="M95 6.46154V14H93V6.46154C91.896 6.46049 91.001 5.49662 91 4.30769V2.15385C91.001 0.964918 91.896 0.0010509 93 -7.15256e-07H95C96.104 0.0010509 96.999 0.964918 97 2.15385V4.30769C96.999 5.49662 96.104 6.46049 95 6.46154ZM95 2.15385H93L92.9985 4.30769H95V2.15385Z" fill="#FFC700" fill-opacity="0.26"/>
<path d="M93 18H95V16H93V18Z" fill="#FFC700" fill-opacity="0.26"/>
<path d="M81.1 4.84615C81.1 4.54905 80.8871 4.30769 80.625 4.30769H69.7C69.6991 5.49662 68.8488 6.46049 67.8 6.46154H65.9C64.8512 6.46049 64.0009 5.49662 64 4.30769V2.15385C64.0009 0.964918 64.8512 0.0010509 65.9 -7.15256e-07H67.8C68.8488 0.0010509 69.6991 0.964918 69.7 2.15385H80.625C81.9359 2.15542 82.9986 3.36013 83 4.84615V14H81.1V4.84615ZM65.9 2.15385V4.30769H67.8L67.8014 2.15385H65.9Z" fill="#FFC700" fill-opacity="0.26"/>
<path d="M82 18H83V16H82V18Z" fill="#FFC700" fill-opacity="0.26"/>
<path d="M62 11.8214C62.0015 10.343 63.1201 9.14443 64.5 9.14286H69C69.001 7.96 69.896 7.00105 71 7H73C74.104 7.00105 74.999 7.96 75 9.14286V11.2857C74.999 12.4686 74.104 13.4275 73 13.4286H71C69.896 13.4275 69.001 12.4686 69 11.2857H64.5C64.2241 11.2857 64 11.5258 64 11.8214V15.0357C64 15.3313 64.2241 15.5714 64.5 15.5714C65.8799 15.573 66.9985 16.7716 67 18.25V22H65V18.25C65 17.9544 64.7759 17.7143 64.5 17.7143C63.1201 17.7127 62.0015 16.5142 62 15.0357V11.8214ZM71 11.2857H73V9.14286H71L70.9985 11.2857H71Z" fill="#FFC700" fill-opacity="0.26"/>
<path d="M65 26H67V24H65V26Z" fill="#FFC700" fill-opacity="0.26"/>
<path d="M95 26H93C91.896 25.9989 91.001 24.9547 91 23.6667H83.5C82.1201 23.665 81.0015 22.3599 81 20.75V19H83V20.75C83 21.0719 83.2241 21.3333 83.5 21.3333H91C91.001 20.0453 91.896 19.0011 93 19H95C96.104 19.0011 96.999 20.0453 97 21.3333V23.6667C96.999 24.9547 96.104 25.9989 95 26ZM93 21.3333V23.6667H95L95.0015 21.3333H93Z" fill="#FFC700" fill-opacity="0.26"/>
<path d="M76 17H78V15H76V17Z" fill="#FFC700" fill-opacity="0.26"/>
</svg>
