<svg width="50" height="50" viewBox="0 0 50 50" fill="none" xmlns="http://www.w3.org/2000/svg">
<path d="M49.8168 15.5033C49.45 14.134 48.5718 12.9894 47.344 12.2806L41.1318 8.69393C40.6648 8.42441 40.0675 8.58427 39.7978 9.05134C39.5281 9.51842 39.6882 10.1156 40.1552 10.3853L46.3675 13.972C47.1434 14.42 47.6984 15.1432 47.9303 16.0086C48.1621 16.8741 48.0432 17.778 47.5952 18.554L42.6652 27.0931V20.1305C42.6652 18.4191 41.2729 17.0268 39.5615 17.0268C39.1552 17.0268 38.7669 17.1053 38.4109 17.2479V14.5962C38.4109 12.8848 37.0186 11.4925 35.3072 11.4925C34.883 11.4925 34.4785 11.5779 34.1099 11.7327C33.8544 10.2768 32.5808 9.16697 31.0528 9.16697C29.5248 9.16697 28.2513 10.2768 27.9958 11.7327C27.6272 11.578 27.2226 11.4925 26.7985 11.4925C25.0871 11.4925 23.6948 12.8848 23.6948 14.5962L23.6946 26.4137L22.6108 24.7217C21.7586 23.3912 20.1131 22.8006 18.6095 23.2859C16.8126 23.8657 15.8116 25.7417 16.3305 27.5571L16.4117 27.8412C16.8382 29.3331 17.4197 30.7716 18.139 32.1342L11.411 28.2498C9.80917 27.3249 9.25841 25.2694 10.1832 23.6676L21.7506 3.63247C22.1986 2.85652 22.9219 2.30146 23.7873 2.06953C24.6527 1.83751 25.5566 1.95665 26.3326 2.40468L32.5452 5.99148C33.0124 6.2613 33.6095 6.10124 33.8791 5.63407C34.1489 5.167 33.9888 4.56985 33.5217 4.30013L27.3091 0.713328C26.0813 0.00456172 24.651 -0.183909 23.2817 0.183072C21.9125 0.549954 20.7679 1.42825 20.0591 2.65594L19.4421 3.72466C17.056 3.03552 14.5889 2.66014 12.0964 2.60995C12.0896 2.60985 12.083 2.60975 12.0764 2.60975C11.5462 2.60975 11.1112 3.03415 11.1004 3.56666C11.0896 4.1058 11.5179 4.55178 12.0571 4.56262C14.2174 4.60608 16.3568 4.91183 18.434 5.47079L11.9665 16.6729C10.563 16.1904 9.09866 15.9318 7.60233 15.9051C7.06193 15.8943 6.6182 16.3248 6.60853 16.864C6.59886 17.4033 7.02824 17.8481 7.56747 17.8578C8.72992 17.8786 9.86972 18.0614 10.9687 18.4011L8.49204 22.691C7.02882 25.2253 7.90027 28.4778 10.4346 29.941L20.5343 35.7721C21.6998 37.2175 23.0436 38.5215 24.539 39.6429V49.0232C24.539 49.5625 24.9762 49.9997 25.5155 49.9997C26.0549 49.9997 26.4921 49.5625 26.4921 49.0232V39.1479C26.4921 38.8326 26.3398 38.5366 26.0834 38.3533C22.3267 35.6683 19.5589 31.7443 18.2897 27.3044L18.2084 27.0203C17.9805 26.2231 18.4201 25.3992 19.2092 25.1447C19.8693 24.9318 20.5921 25.191 20.9663 25.7751L23.849 30.2753C24.0829 30.6403 24.5295 30.8075 24.9456 30.6857C25.3618 30.5639 25.6478 30.1822 25.6478 29.7485V25.7039C25.6479 25.6975 25.6479 25.691 25.6479 25.6846V14.5963C25.6479 13.9618 26.1641 13.4456 26.7986 13.4456C27.433 13.4456 27.9492 13.9618 27.9492 14.5963V23.7672C27.9492 24.3064 28.3864 24.7437 28.9257 24.7437C29.4651 24.7437 29.9023 24.3064 29.9023 23.7672V12.2707C29.9023 11.6362 30.4184 11.12 31.0529 11.12C31.6874 11.12 32.2035 11.6362 32.2035 12.2707V23.7672C32.2035 24.3064 32.6407 24.7437 33.18 24.7437C33.7194 24.7437 34.1566 24.3064 34.1566 23.7672V14.5963C34.1566 13.9618 34.6728 13.4456 35.3072 13.4456C35.9417 13.4456 36.4578 13.9618 36.4578 14.5963V23.7672C36.4578 24.3064 36.895 24.7437 37.4344 24.7437C37.9737 24.7437 38.4109 24.3064 38.4109 23.7672V20.1307C38.4109 19.4962 38.9271 18.98 39.5615 18.98C40.196 18.98 40.7122 19.4962 40.7122 20.1307V28.1353C40.7122 31.971 39.1544 35.7242 36.4383 38.4325C36.2546 38.6157 36.1513 38.8646 36.1513 39.124V49.0234C36.1513 49.5627 36.5885 49.9999 37.1278 49.9999C37.6672 49.9999 38.1043 49.5627 38.1043 49.0234V39.5224C40.2268 37.3006 41.6591 34.5873 42.2933 31.6433L49.2865 19.5307C49.9955 18.3029 50.1838 16.8726 49.8168 15.5033Z" fill="white"/>
<path d="M0.977868 6.65204C1.10247 6.65204 1.22922 6.62802 1.35149 6.57724C3.31566 5.76301 5.38061 5.18656 7.48902 4.86382C8.0222 4.78228 8.3882 4.28395 8.30656 3.75086C8.22502 3.21768 7.7269 2.85226 7.19362 2.93331C4.92995 3.27969 2.71276 3.89871 0.603568 4.77319C0.105347 4.97973 -0.131069 5.551 0.0754655 6.04923C0.231221 6.42519 0.594682 6.65204 0.977868 6.65204Z" fill="white"/>
<path d="M0.97746 13.0197C1.10128 13.0197 1.22716 12.996 1.34873 12.9459C4.39645 11.6916 7.74328 11.2421 11.0274 11.6459C11.5628 11.7126 12.05 11.3313 12.1159 10.796C12.1817 10.2607 11.8011 9.77334 11.2658 9.70752C7.64924 9.26251 3.96278 9.7581 0.605405 11.1399C0.106696 11.3452 -0.131282 11.9157 0.0739825 12.4146C0.229249 12.7917 0.593394 13.0197 0.97746 13.0197Z" fill="white"/>
<path d="M2.42783 16.7793C1.76839 17.0223 1.12183 17.3173 0.506041 17.6561C0.0335027 17.916 -0.138853 18.5098 0.121097 18.9823C0.298921 19.3057 0.632989 19.4885 0.977603 19.4885C1.13668 19.4885 1.29819 19.4494 1.44741 19.3674C1.97795 19.0756 2.53506 18.8214 3.10329 18.6119C3.60933 18.4254 3.8684 17.864 3.68178 17.3579C3.49527 16.8519 2.93377 16.5926 2.42783 16.7793Z" fill="white"/>
<path d="M36.8387 8.31966C37.0956 8.31966 37.3465 8.21517 37.5291 8.03353C37.7108 7.85188 37.8153 7.59993 37.8153 7.34309C37.8153 7.08527 37.7108 6.83332 37.5291 6.65167C37.3465 6.47013 37.0955 6.36554 36.8387 6.36554C36.5819 6.36554 36.3299 6.47003 36.1483 6.65167C35.9657 6.83429 35.8622 7.08527 35.8622 7.34309C35.8622 7.59993 35.9657 7.85091 36.1483 8.03353C36.3299 8.21517 36.5808 8.31966 36.8387 8.31966Z" fill="white"/>
</svg>
