<svg width="54" height="54" viewBox="0 0 54 54" fill="none" xmlns="http://www.w3.org/2000/svg">
<path d="M27 0C12.1125 0 0 12.1125 0 27C0 41.8875 12.1125 54 27 54C41.8875 54 54 41.8875 54 27C54 12.1125 41.8875 0 27 0ZM27 50.625C13.9729 50.625 3.37502 40.0271 3.37502 27C3.37502 13.9729 13.9729 3.37502 27 3.37502C40.0271 3.37502 50.625 13.9729 50.625 27C50.625 40.0271 40.0271 50.625 27 50.625V50.625Z" fill="white"/>
<path d="M28.6875 10.1251H25.3125V27.6988L35.9319 38.3181L38.3181 35.9319L28.6875 26.3013V10.1251Z" fill="white"/>
</svg>
