<svg width="243" height="143" viewBox="0 0 243 143" fill="none" xmlns="http://www.w3.org/2000/svg">
<path d="M224.543 1.75299H139.109V0H100.37V1.75299H14.5833C13.8244 1.75299 13.0729 1.9018 12.3718 2.19092C11.6706 2.48004 11.0336 2.90381 10.4969 3.43804C9.96031 3.97226 9.53465 4.60648 9.24423 5.30448C8.95381 6.00248 8.80432 6.75059 8.80432 7.5061V123.968C8.80432 125.494 9.41317 126.957 10.4969 128.036C11.5807 129.115 13.0506 129.721 14.5833 129.721H224.543C225.302 129.721 226.053 129.572 226.754 129.283C227.455 128.994 228.092 128.57 228.629 128.036C229.166 127.502 229.591 126.868 229.882 126.17C230.172 125.472 230.322 124.724 230.322 123.968V7.5061C230.322 6.75059 230.172 6.00247 229.882 5.30447C229.591 4.60647 229.166 3.97226 228.629 3.43803C228.092 2.90381 227.455 2.48004 226.754 2.19092C226.053 1.9018 225.302 1.75299 224.543 1.75299V1.75299Z" fill="#0057A9"/>
<path d="M222.574 11.9203H16.5522V127.618H222.574V11.9203Z" fill="#353B57"/>
<path d="M119.387 8.76497C120.554 8.76497 121.5 7.82316 121.5 6.66139C121.5 5.49961 120.554 4.5578 119.387 4.5578C118.22 4.5578 117.274 5.49961 117.274 6.66139C117.274 7.82316 118.22 8.76497 119.387 8.76497Z" fill="#353B57"/>
<path d="M210.747 26.6453H200.981V16.9231H210.747V26.6453ZM201.405 26.2226H210.322V17.3458H201.405V26.2226Z" fill="#0057A9"/>
<path d="M236.106 125.514H216V124.072C216 124.034 215.993 123.997 215.978 123.962C215.964 123.928 215.943 123.896 215.916 123.87C215.889 123.843 215.858 123.822 215.823 123.808C215.788 123.793 215.75 123.786 215.713 123.786H208.819C208.781 123.786 208.744 123.793 208.709 123.808C208.674 123.822 208.643 123.843 208.616 123.87C208.589 123.896 208.568 123.928 208.554 123.962C208.539 123.997 208.532 124.034 208.532 124.072V125.514H204.223V124.072C204.223 124.034 204.216 123.997 204.202 123.962C204.187 123.928 204.166 123.896 204.139 123.87C204.113 123.843 204.081 123.822 204.046 123.808C204.011 123.793 203.974 123.786 203.936 123.786H197.043C197.005 123.786 196.967 123.793 196.933 123.808C196.898 123.822 196.866 123.843 196.839 123.87C196.813 123.896 196.792 123.928 196.777 123.962C196.763 123.997 196.755 124.034 196.755 124.072V125.514H192.447V124.072C192.447 124.034 192.439 123.997 192.425 123.962C192.411 123.928 192.389 123.896 192.363 123.87C192.336 123.843 192.304 123.822 192.269 123.808C192.235 123.793 192.197 123.786 192.16 123.786H185.266C185.228 123.786 185.191 123.793 185.156 123.808C185.121 123.822 185.09 123.843 185.063 123.87C185.036 123.896 185.015 123.928 185.001 123.962C184.986 123.997 184.979 124.034 184.979 124.072V125.514H180.67V124.072C180.67 124.034 180.663 123.997 180.648 123.962C180.634 123.928 180.613 123.896 180.586 123.87C180.559 123.843 180.528 123.822 180.493 123.808C180.458 123.793 180.421 123.786 180.383 123.786H173.489C173.452 123.786 173.414 123.793 173.379 123.808C173.345 123.822 173.313 123.843 173.286 123.87C173.26 123.896 173.238 123.928 173.224 123.962C173.21 123.997 173.202 124.034 173.202 124.072V125.514H168.894V124.072C168.894 124.034 168.886 123.997 168.872 123.962C168.857 123.928 168.836 123.896 168.809 123.87C168.783 123.843 168.751 123.822 168.716 123.808C168.681 123.793 168.644 123.786 168.606 123.786H161.713C161.675 123.786 161.638 123.793 161.603 123.808C161.568 123.822 161.536 123.843 161.51 123.87C161.483 123.896 161.462 123.928 161.447 123.962C161.433 123.997 161.426 124.034 161.426 124.072V125.514H157.117V124.072C157.117 124.034 157.11 123.997 157.095 123.962C157.081 123.928 157.06 123.896 157.033 123.87C157.006 123.843 156.975 123.822 156.94 123.808C156.905 123.793 156.867 123.786 156.83 123.786H149.936C149.898 123.786 149.861 123.793 149.826 123.808C149.791 123.822 149.76 123.843 149.733 123.87C149.706 123.896 149.685 123.928 149.671 123.962C149.656 123.997 149.649 124.034 149.649 124.072V125.514H145.34V124.072C145.34 124.034 145.333 123.997 145.319 123.962C145.304 123.928 145.283 123.896 145.256 123.87C145.23 123.843 145.198 123.822 145.163 123.808C145.128 123.793 145.091 123.786 145.053 123.786H91.0532C91.0155 123.786 90.9781 123.793 90.9433 123.808C90.9084 123.822 90.8768 123.843 90.8501 123.87C90.8234 123.896 90.8023 123.928 90.7878 123.962C90.7734 123.997 90.766 124.034 90.766 124.072V125.514H86.4575V124.072C86.4575 124.034 86.45 123.997 86.4356 123.962C86.4212 123.928 86.4 123.896 86.3733 123.87C86.3466 123.843 86.315 123.822 86.2801 123.808C86.2453 123.793 86.2079 123.786 86.1702 123.786H79.2766C79.2389 123.786 79.2015 123.793 79.1667 123.808C79.1318 123.822 79.1002 123.843 79.0735 123.87C79.0468 123.896 79.0257 123.928 79.0112 123.962C78.9968 123.997 78.9894 124.034 78.9894 124.072V125.514H74.6809V124.072C74.6809 124.034 74.6734 123.997 74.659 123.962C74.6446 123.928 74.6234 123.896 74.5967 123.87C74.5701 123.843 74.5384 123.822 74.5035 123.808C74.4687 123.793 74.4313 123.786 74.3936 123.786H67.5C67.4623 123.786 67.4249 123.793 67.3901 123.808C67.3552 123.822 67.3236 123.843 67.2969 123.87C67.2702 123.896 67.2491 123.928 67.2346 123.962C67.2202 123.997 67.2128 124.034 67.2128 124.072V125.514H62.9043V124.072C62.9043 124.034 62.8968 123.997 62.8824 123.962C62.868 123.928 62.8468 123.896 62.8201 123.87C62.7935 123.843 62.7618 123.822 62.7269 123.808C62.6921 123.793 62.6547 123.786 62.617 123.786H55.7234C55.6857 123.786 55.6483 123.793 55.6135 123.808C55.5786 123.822 55.547 123.843 55.5203 123.87C55.4936 123.896 55.4725 123.928 55.458 123.962C55.4436 123.997 55.4362 124.034 55.4362 124.072V125.514H51.1277V124.072C51.1277 124.034 51.1202 123.997 51.1058 123.962C51.0914 123.928 51.0702 123.896 51.0435 123.87C51.0169 123.843 50.9852 123.822 50.9503 123.808C50.9155 123.793 50.8781 123.786 50.8404 123.786H43.9468C43.9091 123.786 43.8717 123.793 43.8369 123.808C43.802 123.822 43.7704 123.843 43.7437 123.87C43.717 123.896 43.6959 123.928 43.6814 123.962C43.667 123.997 43.6596 124.034 43.6596 124.072V125.514H39.3511V124.072C39.3511 124.034 39.3436 123.997 39.3292 123.962C39.3148 123.928 39.2936 123.896 39.2669 123.87C39.2403 123.843 39.2086 123.822 39.1737 123.808C39.1389 123.793 39.1015 123.786 39.0638 123.786H32.1702C32.1325 123.786 32.0951 123.793 32.0603 123.808C32.0254 123.822 31.9938 123.843 31.9671 123.87C31.9404 123.896 31.9193 123.928 31.9048 123.962C31.8904 123.997 31.883 124.034 31.883 124.072V125.514H27.5745V124.072C27.5745 124.034 27.567 123.997 27.5526 123.962C27.5382 123.928 27.517 123.896 27.4903 123.87C27.4637 123.843 27.432 123.822 27.3972 123.808C27.3623 123.793 27.3249 123.786 27.2872 123.786H20.3936C20.3559 123.786 20.3185 123.793 20.2837 123.808C20.2488 123.822 20.2172 123.843 20.1905 123.87C20.1638 123.896 20.1427 123.928 20.1282 123.962C20.1138 123.997 20.1064 124.034 20.1064 124.072V125.514H6.89362C5.06532 125.514 3.3119 126.237 2.01909 127.524C0.72629 128.811 8.70913e-07 130.557 0 132.377V135.48C4.35456e-06 137.3 0.726296 139.045 2.0191 140.333C3.3119 141.62 5.06532 142.343 6.89362 142.343H236.106C237.935 142.343 239.688 141.62 240.981 140.333C242.274 139.045 243 137.3 243 135.48V132.377C243 130.557 242.274 128.811 240.981 127.524C239.688 126.237 237.935 125.514 236.106 125.514V125.514Z" fill="#0057A9"/>
<path d="M209.838 76.3889H143.506V38.7944H209.838V76.3889ZM144.163 75.7351H209.182V39.4483H144.163V75.7351Z" fill="#0057A9"/>
<path d="M88.3383 83.9078H29.2302V47.2941H88.3383V83.9078ZM29.887 83.254H87.6816V47.9479H29.887V83.254Z" fill="#0057A9"/>
<path d="M56.845 69.8508L56.7884 69.1197C56.619 67.6017 57.1273 65.9429 58.5393 64.2563C59.8101 62.7661 60.5161 61.6698 60.5161 60.4046C60.5161 58.9709 59.6124 58.015 57.8333 57.9869C56.8158 57.9828 55.821 58.2868 54.981 58.8585L54.3032 57.0873C55.2353 56.4124 56.8449 55.9626 58.3416 55.9626C61.5893 55.9626 63.0577 57.9588 63.0577 60.0952C63.0577 62.0072 61.9845 63.3848 60.629 64.9871C59.3865 66.4489 58.9347 67.686 59.0193 69.1197L59.0476 69.8508L56.845 69.8508ZM56.2236 73.7868C56.2084 73.5574 56.2412 73.3274 56.3199 73.1113C56.3985 72.8952 56.5213 72.6976 56.6805 72.5312C56.8398 72.3647 57.032 72.233 57.245 72.1442C57.4579 72.0555 57.6871 72.0117 57.918 72.0156C58.9065 72.0156 59.5842 72.7463 59.5842 73.7868C59.5936 74.0123 59.557 74.2373 59.4768 74.4483C59.3965 74.6594 59.2743 74.8521 59.1173 75.0149C58.9604 75.1778 58.772 75.3073 58.5635 75.3958C58.3549 75.4843 58.1306 75.5299 57.9039 75.5299C57.6773 75.5299 57.4529 75.4843 57.2444 75.3958C57.0359 75.3073 56.8475 75.1778 56.6905 75.0149C56.5336 74.8521 56.4113 74.6594 56.3311 74.4483C56.2509 74.2373 56.2143 74.0123 56.2236 73.7868V73.7868Z" fill="#D0CDE1"/>
<path d="M174.733 61.6781L174.676 60.947C174.507 59.429 175.015 57.7702 176.427 56.0836C177.698 54.5933 178.404 53.497 178.404 52.2319C178.404 50.7981 177.5 49.8423 175.721 49.8142C174.704 49.8101 173.709 50.114 172.869 50.6858L172.191 48.9146C173.123 48.2397 174.733 47.7899 176.229 47.7899C179.477 47.7899 180.946 49.7861 180.946 51.9225C180.946 53.8345 179.872 55.212 178.517 56.8143C177.274 58.2762 176.823 59.5132 176.907 60.947L176.935 61.678L174.733 61.6781ZM174.111 65.614C174.096 65.3847 174.129 65.1547 174.208 64.9386C174.286 64.7224 174.409 64.5249 174.568 64.3585C174.728 64.192 174.92 64.0602 175.133 63.9715C175.346 63.8827 175.575 63.8389 175.806 63.8429C176.794 63.8429 177.472 64.5736 177.472 65.614C177.481 65.8395 177.445 66.0645 177.365 66.2756C177.284 66.4866 177.162 66.6794 177.005 66.8422C176.848 67.005 176.66 67.1346 176.451 67.2231C176.243 67.3116 176.018 67.3572 175.792 67.3572C175.565 67.3572 175.341 67.3116 175.132 67.2231C174.924 67.1346 174.735 67.005 174.578 66.8422C174.421 66.6794 174.299 66.4866 174.219 66.2756C174.139 66.0645 174.102 65.8395 174.111 65.614V65.614Z" fill="#D0CDE1"/>
<path d="M120.724 113.483C136.373 113.483 149.06 100.854 149.06 85.2738C149.06 69.694 136.373 57.0641 120.724 57.0641C105.074 57.0641 92.387 69.694 92.387 85.2738C92.387 100.854 105.074 113.483 120.724 113.483Z" fill="#2A2674"/>
<path d="M109.779 123.904L101.308 122.378L104.056 104.769L112.526 106.296L109.779 123.904Z" fill="#2A2674"/>
<path d="M129.468 109.349L120.997 107.822L118.25 122.931L126.721 124.458L129.468 109.349Z" fill="#2A2674"/>
<path d="M132.383 125.281C132.677 123.831 129.767 122.023 125.883 121.243C121.999 120.462 118.613 121.005 118.319 122.455C118.025 123.904 120.935 125.712 124.818 126.493C128.702 127.273 132.089 126.731 132.383 125.281Z" fill="#2A2674"/>
<path d="M114.739 124.826C114.934 123.359 111.909 121.751 107.981 121.233C104.053 120.715 100.711 121.484 100.516 122.95C100.321 124.416 103.347 126.025 107.274 126.543C111.202 127.061 114.544 126.292 114.739 124.826Z" fill="#2A2674"/>
<path d="M122.707 88.0147C128.056 88.0147 132.392 83.6982 132.392 78.3735C132.392 73.0487 128.056 68.7322 122.707 68.7322C117.359 68.7322 113.023 73.0487 113.023 78.3735C113.023 83.6982 117.359 88.0147 122.707 88.0147Z" fill="white"/>
<path d="M126.688 78.1313C128.471 78.1313 129.916 76.6925 129.916 74.9176C129.916 73.1426 128.471 71.7038 126.688 71.7038C124.905 71.7038 123.459 73.1426 123.459 74.9176C123.459 76.6925 124.905 78.1313 126.688 78.1313Z" fill="#121213"/>
<path d="M98.37 54.5846C97.9438 44.1409 106.985 35.2951 118.564 34.8268C130.144 34.3586 139.876 42.4453 140.302 52.8889C140.728 63.3325 132.679 65.7054 121.1 66.1737C109.521 66.6419 98.7961 65.0282 98.37 54.5846Z" fill="white"/>
<path d="M147.882 84.4504C155.509 82.71 161.247 79.3667 160.698 76.9831C160.15 74.5994 153.522 74.078 145.895 75.8184C138.267 77.5588 132.529 80.9021 133.078 83.2857C133.627 85.6694 140.255 86.1909 147.882 84.4504Z" fill="#2A2674"/>
<path d="M92.2586 93.6591C99.8857 91.9187 105.624 88.5754 105.075 86.1918C104.526 83.8081 97.8982 83.2866 90.2711 85.0271C82.644 86.7675 76.9059 90.1107 77.4547 92.4944C78.0036 94.8781 84.6315 95.3995 92.2586 93.6591Z" fill="#2A2674"/>
<path d="M112.941 96.3908C112.79 97.2214 112.805 98.0734 112.984 98.8983C113.164 99.7232 113.505 100.505 113.988 101.198C114.472 101.892 115.087 102.484 115.8 102.941C116.513 103.398 117.31 103.71 118.144 103.86C118.978 104.011 119.834 103.996 120.663 103.817C121.491 103.638 122.276 103.299 122.973 102.818C123.67 102.337 124.265 101.724 124.723 101.014C125.182 100.304 125.496 99.5113 125.647 98.6807C126.282 95.1877 123.57 93.9516 120.061 93.3193C116.552 92.6869 113.576 92.8978 112.941 96.3908Z" fill="white"/>
<path d="M59.556 4.28979H12.9634V48.4118H59.556V4.28979Z" fill="#D0CDE1"/>
<path d="M54.2614 9.56073H18.258V36.9695H54.2614V9.56073Z" fill="white"/>
<path d="M37.8058 40.2031H18.2224V41.2292H37.8058V40.2031Z" fill="#F2F2F2"/>
<path d="M37.8058 43.2813H18.2224V44.3074H37.8058V43.2813Z" fill="#F2F2F2"/>
<path d="M24.6643 27.3768C26.9412 27.3768 28.7871 25.5392 28.7871 23.2725C28.7871 21.0057 26.9412 19.1681 24.6643 19.1681C22.3873 19.1681 20.5414 21.0057 20.5414 23.2725C20.5414 25.5392 22.3873 27.3768 24.6643 27.3768Z" fill="#121213"/>
<path d="M36.2597 27.3768C38.5367 27.3768 40.3825 25.5392 40.3825 23.2725C40.3825 21.0057 38.5367 19.1681 36.2597 19.1681C33.9828 19.1681 32.1369 21.0057 32.1369 23.2725C32.1369 25.5392 33.9828 27.3768 36.2597 27.3768Z" fill="#0057A9"/>
<path d="M47.8552 27.3768C50.1322 27.3768 51.978 25.5392 51.978 23.2725C51.978 21.0057 50.1322 19.1681 47.8552 19.1681C45.5782 19.1681 43.7324 21.0057 43.7324 23.2725C43.7324 25.5392 45.5782 27.3768 47.8552 27.3768Z" fill="#E6E6E6"/>
<path d="M36.2597 8.90717C37.3982 8.90717 38.3211 7.98837 38.3211 6.85498C38.3211 5.72159 37.3982 4.8028 36.2597 4.8028C35.1212 4.8028 34.1983 5.72159 34.1983 6.85498C34.1983 7.98837 35.1212 8.90717 36.2597 8.90717Z" fill="#121213"/>
<path d="M81.7174 89.7229H35.1248V133.845H81.7174V89.7229Z" fill="#D0CDE1"/>
<path d="M76.4228 94.9939H40.4194V122.403H76.4228V94.9939Z" fill="white"/>
<path d="M60.9638 99.4982H48.3419V112.064H60.9638V99.4982Z" fill="#0057A9"/>
<path d="M53.1737 102.64V117.898H68.5003V102.64H53.1737ZM67.8355 117.236H53.8385V103.302H67.8355V117.236Z" fill="#121213"/>
<path d="M59.9672 125.123H40.3838V126.149H59.9672V125.123Z" fill="#F2F2F2"/>
<path d="M58.4211 94.3403C59.5596 94.3403 60.4825 93.4215 60.4825 92.2881C60.4825 91.1548 59.5596 90.236 58.4211 90.236C57.2826 90.236 56.3597 91.1548 56.3597 92.2881C56.3597 93.4215 57.2826 94.3403 58.4211 94.3403Z" fill="#121213"/>
<path d="M203.025 76.5139H156.432V120.636H203.025V76.5139Z" fill="#D0CDE1"/>
<path d="M197.731 81.7849H161.727V109.194H197.731V81.7849Z" fill="white"/>
<path d="M183.601 103.242H175.856V105.527H183.601V103.242Z" fill="#121213"/>
<path d="M192.965 85.4515H166.492V86.4308H192.965V85.4515Z" fill="#121213"/>
<path d="M192.965 88.5527H166.492V89.532H192.965V88.5527Z" fill="#121213"/>
<path d="M192.965 91.6537H166.492V92.633H192.965V91.6537Z" fill="#121213"/>
<path d="M192.965 94.7546H166.492V95.7339H192.965V94.7546Z" fill="#121213"/>
<path d="M192.965 97.8558H166.492V98.835H192.965V97.8558Z" fill="#121213"/>
<path d="M181.275 111.914H161.691V112.94H181.275V111.914Z" fill="#F2F2F2"/>
<path d="M189.005 114.479H161.691V115.505H189.005V114.479Z" fill="#F2F2F2"/>
<path d="M179.729 81.1312C180.867 81.1312 181.79 80.2124 181.79 79.079C181.79 77.9456 180.867 77.0269 179.729 77.0269C178.59 77.0269 177.667 77.9456 177.667 79.079C177.667 80.2124 178.59 81.1312 179.729 81.1312Z" fill="#121213"/>
</svg>
