<?xml version="1.0" encoding="UTF-8"?>
<svg viewBox="0 0 173 24" xmlns="http://www.w3.org/2000/svg">
<path d="m61.255 18.597h-5.9854l-1.2392 4.4033h-1.7666l5.5371-18.905h0.8965l5.5634 18.905h-1.7534l-1.2524-4.4033zm-5.5239-1.6216h5.0756l-2.4917-8.7144-0.0527-0.69873-0.0527 0.69873-2.4785 8.7144zm20.698 6.0249-7.8838-13.764-0.1582-0.81738v14.581h-1.7007v-18.905h0.8833l7.8838 13.777 0.1714 0.8042v-14.581h1.7007v18.905h-0.8965zm15.873-4.6406c0 0.6416-0.123 1.2436-0.3691 1.8061-0.2373 0.5625-0.5669 1.0547-0.9888 1.4766-0.4218 0.4219-0.9184 0.7558-1.4897 1.0019-0.5625 0.2373-1.1646 0.356-1.8062 0.356h-5.9853v-18.905h5.9853c0.6416 0 1.2437 0.12304 1.8062 0.36914 0.5713 0.2373 1.0679 0.56689 1.4897 0.98877 0.4219 0.42187 0.7515 0.91845 0.9888 1.4897 0.2461 0.5625 0.3691 1.1646 0.3691 1.8062v9.6109zm-1.7006-9.6109c0-0.42188-0.0791-0.81299-0.2373-1.1733-0.1582-0.36915-0.378-0.68995-0.6592-0.96241-0.2725-0.28125-0.5933-0.50097-0.9624-0.65918-0.3604-0.1582-0.7515-0.2373-1.1734-0.2373h-4.2055v15.662h4.2055c0.4219 0 0.813-0.0791 1.1734-0.2373 0.3691-0.1582 0.6899-0.3735 0.9624-0.646 0.2812-0.2724 0.501-0.5889 0.6592-0.9492 0.1582-0.3691 0.2373-0.7647 0.2373-1.1865v-9.6109zm14.633 14.251-5.128-8.0684h-2.3336v8.0684h-1.7006v-18.905h5.9982c0.642 0 1.244 0.12304 1.806 0.36914 0.563 0.2373 1.055 0.56689 1.477 0.98877 0.422 0.42187 0.751 0.91845 0.989 1.4897 0.246 0.5625 0.369 1.1646 0.369 1.8062v1.5293c0 0.6416-0.123 1.2481-0.369 1.8194-0.238 0.5625-0.567 1.0547-0.989 1.4765-0.422 0.4219-0.914 0.7559-1.477 1.002-0.562 0.2373-1.164 0.3559-1.806 0.3559l5.129 8.0684h-1.965zm-0.224-14.251c0-0.42188-0.079-0.81299-0.237-1.1733-0.158-0.36915-0.374-0.68995-0.646-0.96241-0.273-0.28125-0.593-0.50097-0.962-0.65918-0.361-0.1582-0.752-0.2373-1.174-0.2373h-4.2186v7.5938h4.2186c0.422 0 0.813-0.0791 1.174-0.2373 0.369-0.1582 0.689-0.3736 0.962-0.646 0.272-0.2813 0.488-0.6021 0.646-0.9624 0.158-0.3692 0.237-0.7647 0.237-1.1866v-1.5293zm12.538 9.8482h-5.986l-1.239 4.4033h-1.766l5.537-18.905h0.896l5.564 18.905h-1.754l-1.252-4.4033zm-5.524-1.6216h5.076l-2.492-8.7144-0.053-0.69873-0.053 0.69873-2.478 8.7144zm14.726-11.259v17.284h-1.701v-17.284h-4.508v-1.6216h10.718v1.6216h-4.509zm7.225 17.284v-18.905h10.639v1.6216h-8.939v7.0269h7.238v1.6215h-7.238v7.0137h8.939v1.6216h-10.639zm24.257-4.377c0 0.6416-0.123 1.2437-0.369 1.8062-0.237 0.5625-0.567 1.0547-0.989 1.4766-0.421 0.4218-0.914 0.7558-1.476 1.0019-0.563 0.2373-1.165 0.356-1.806 0.356h-1.345c-0.642 0-1.248-0.1187-1.819-0.356-0.563-0.2461-1.055-0.5801-1.477-1.0019-0.422-0.4219-0.756-0.9141-1.002-1.4766-0.237-0.5625-0.356-1.1646-0.356-1.8062v-10.151c0-0.6416 0.119-1.2436 0.356-1.8062 0.246-0.5625 0.58-1.0547 1.002-1.4766 0.422-0.42187 0.914-0.75146 1.477-0.98876 0.571-0.2461 1.177-0.36915 1.819-0.36915h1.345c0.641 0 1.243 0.12305 1.806 0.36915 0.562 0.2373 1.055 0.56689 1.476 0.98876 0.422 0.42188 0.752 0.91407 0.989 1.4766 0.246 0.5625 0.369 1.1646 0.369 1.8062v0.76465l-1.7 0.26367v-1.0283c0-0.42188-0.079-0.81299-0.238-1.1733-0.158-0.36914-0.373-0.68994-0.646-0.9624-0.272-0.27246-0.593-0.4878-0.962-0.646-0.36-0.1582-0.751-0.2373-1.173-0.2373h-1.187c-0.422 0-0.817 0.0791-1.186 0.2373-0.361 0.1582-0.682 0.37354-0.963 0.646-0.272 0.27246-0.488 0.59326-0.646 0.9624-0.158 0.36035-0.237 0.75146-0.237 1.1733v10.151c0 0.4219 0.079 0.8174 0.237 1.1866 0.158 0.3603 0.374 0.6811 0.646 0.9624 0.281 0.2724 0.602 0.4878 0.963 0.646 0.369 0.1582 0.764 0.2373 1.186 0.2373h1.187c0.422 0 0.813-0.0791 1.173-0.2373 0.369-0.1582 0.69-0.3736 0.962-0.646 0.273-0.2813 0.488-0.6021 0.646-0.9624 0.159-0.3692 0.238-0.7647 0.238-1.1866v-1.0283l1.7 0.2769v0.7514zm12.736 4.377v-8.6353h-7.238v8.6353h-1.701v-18.905h1.701v8.6485h7.238v-8.6485h1.7v18.905h-1.7z"/>
<path d="m61.255 18.597 0.1924-0.0547-0.0414-0.1453h-0.151v0.2zm-5.9854 0v-0.2h-0.1515l-0.041 0.1458 0.1925 0.0542zm-1.2392 4.4033v0.2h0.1515l0.041-0.1458-0.1925-0.0542zm-1.7666 0-0.192-0.0562-0.075 0.2562h0.267v-0.2zm5.5371-18.905v-0.2h-0.1498l-0.0422 0.14378 0.192 0.05622zm0.8965 0 0.1918-0.05647-0.0422-0.14353h-0.1496v0.2zm5.5634 18.905v0.2h0.2674l-0.0755-0.2565-0.1919 0.0565zm-1.7534 0-0.1923 0.0547 0.0413 0.1453h0.151v-0.2zm-6.7763-6.0249-0.1924-0.0547-0.0725 0.2547h0.2649v-0.2zm5.0756 0v0.2h0.2652l-0.0729-0.255-0.1923 0.055zm-2.4917-8.7144-0.1994 0.01505 0.0015 0.02033 0.0056 0.0196 0.1923-0.05498zm-0.0527-0.69873 0.1994-0.01505h-0.3988l0.1994 0.01505zm-0.0527 0.69873 0.1923 0.05472 0.0056-0.01948 0.0015-0.02019-0.1994-0.01505zm3.0454 10.136h-5.9854v0.4h5.9854v-0.4zm-6.1779 0.1458-1.2392 4.4033 0.385 0.1084 1.2393-4.4033-0.3851-0.1084zm-1.0467 4.2575h-1.7666v0.4h1.7666v-0.4zm-1.5747 0.2562 5.5371-18.905-0.3839-0.11243-5.5371 18.905 0.3839 0.1124zm5.3452-18.761h0.8965v-0.4h-0.8965v0.4zm0.7046-0.14354 5.5635 18.905 0.3837-0.113-5.5635-18.905-0.3837 0.11293zm5.7553 18.649h-1.7534v0.4h1.7534v-0.4zm-1.561 0.1453-1.2524-4.4033-0.3848 0.1094 1.2525 4.4033 0.3847-0.1094zm-6.9687-5.7702h5.0756v-0.4h-5.0756v0.4zm5.2679-0.255-2.4917-8.7143-0.3846 0.10996 2.4917 8.7144 0.3846-0.11zm-2.4845-8.6744-0.0528-0.69873-0.3988 0.0301 0.0527 0.69873 0.3989-0.0301zm-0.4516-0.69873-0.0528 0.69873 0.3989 0.0301 0.0527-0.69873-0.3988-0.0301zm-0.0457 0.65907-2.4785 8.7144 0.3847 0.1094 2.4785-8.7143-0.3847-0.10943zm18.412 14.794-0.1735 0.0994 0.0576 0.1006h0.1159v-0.2zm-7.8838-13.764-0.1963 0.038 0.0063 0.0326 0.0165 0.0288 0.1735-0.0994zm-0.1582-0.81738 0.1964-0.03801-0.3964 0.03801h0.2zm0 14.581v0.2h0.2v-0.2h-0.2zm-1.7007 0h-0.2v0.2h0.2v-0.2zm0-18.905v-0.2h-0.2v0.2h0.2zm0.8833 0 0.1736-0.09934-0.0576-0.10066h-0.116v0.2zm7.8838 13.777 0.1956-0.0417-0.0065-0.0305-0.0155-0.0272-0.1736 0.0994zm0.1714 0.8042-0.1956 0.0417 0.3956-0.0417h-0.2zm0-14.581v-0.2h-0.2v0.2h0.2zm1.7007 0h0.2v-0.2h-0.2v0.2zm0 18.905v0.2h0.2v-0.2h-0.2zm-0.723-0.0994-7.8837-13.764-0.3471 0.19881 7.8838 13.764 0.347-0.1988zm-7.8609-13.702-0.1582-0.81738-0.3927 0.07601 0.1582 0.81738 0.3927-0.07601zm-0.5546-0.77937v14.581h0.4v-14.581h-0.4zm0.2 14.381h-1.7007v0.4h1.7007v-0.4zm-1.5007 0.2v-18.905h-0.4v18.905h0.4zm-0.2-18.705h0.8833v-0.4h-0.8833v0.4zm0.7097-0.10067 7.8838 13.777 0.3472-0.1987-7.8838-13.777-0.3472 0.19867zm7.8618 13.719 0.1714 0.8042 0.3912-0.0834-0.1714-0.8042-0.3912 0.0834zm0.567 0.7625v-14.581h-0.4v14.581h0.4zm-0.2-14.381h1.7007v-0.4h-1.7007v0.4zm1.5007-0.2v18.905h0.4v-18.905h-0.4zm0.2 18.705h-0.8965v0.4h0.8965v-0.4zm14.607-2.6345-0.1832-0.0801-0.0011 0.0024 0.1843 0.0777zm-2.4785 2.4785 0.0777 0.1843 0.0014-6e-4 -0.0791-0.1837zm-7.7915 0.356h-0.2v0.2h0.2v-0.2zm0-18.905v-0.2h-0.2v0.2h0.2zm7.7915 0.36914-0.0802 0.18326 0.0035 0.00144 0.0767-0.1847zm2.4785 2.4785-0.1847 0.07674 0.0015 0.00343 0.1832-0.08017zm-1.5688 0.63282-0.1839 0.07878 7e-4 0.00161 0.1832-0.08039zm-0.6592-0.96241-0.1437 0.13923 0.0045 0.00442 0.1392-0.14365zm-0.9624-0.65918-0.0804 0.18314 0.0016 6.9e-4 0.0788-0.18383zm-5.3789-0.2373v-0.2h-0.2v0.2h0.2zm0 15.662h-0.2v0.2h0.2v-0.2zm5.3789-0.2373-0.0788-0.1838-0.0016 7e-4 0.0804 0.1831zm0.9624-0.646-0.1392-0.1436-0.0022 0.0022 0.1414 0.1414zm0.6592-0.9492 0.1831 0.0804 7e-4 -0.0016-0.1838-0.0788zm1.7379-1.1865c0 0.6153-0.1178 1.1899-0.3523 1.726l0.3664 0.1603c0.2577-0.5889 0.3859-1.2184 0.3859-1.8863h-0.4zm-0.3534 1.7284c-0.2275 0.5393-0.5427 1.0097-0.9459 1.4129l0.2829 0.2828c0.4405-0.4406 0.7845-0.9545 1.0316-1.5402l-0.3686-0.1555zm-0.9459 1.4129c-0.4032 0.4032-0.8784 0.7231-1.4274 0.9597l0.1582 0.3673c0.5936-0.2557 1.1115-0.6037 1.5521-1.0442l-0.2829-0.2828zm-1.4261 0.9591c-0.5366 0.2264-1.1121 0.3402-1.7284 0.3402v0.4c0.667 0 1.2956-0.1235 1.8839-0.3717l-0.1555-0.3685zm-1.7284 0.3402h-5.9853v0.4h5.9853v-0.4zm-5.7853 0.2v-18.905h-0.4v18.905h0.4zm-0.2-18.705h5.9853v-0.4h-5.9853v0.4zm5.9853 0c0.6153 0 1.1899 0.11783 1.726 0.35237l0.1604-0.36646c-0.589-0.25765-1.2184-0.38591-1.8864-0.38591v0.4zm1.7295 0.35384c0.548 0.22763 1.0223 0.54282 1.425 0.94549l0.2829-0.28284c-0.4411-0.44109-0.9599-0.78508-1.5545-1.032l-0.1534 0.3694zm1.425 0.94549c0.4027 0.40266 0.7179 0.87704 0.9455 1.425l0.3694-0.15344c-0.247-0.59457-0.591-1.1134-1.032-1.5544l-0.2829 0.28284zm0.947 1.4285c0.2345 0.53608 0.3523 1.1107 0.3523 1.726h0.4c0-0.66793-0.1282-1.2974-0.3859-1.8863l-0.3664 0.16033zm0.3523 1.726v9.6109h0.4v-9.6109h-0.4zm-1.3006 0c0-0.44754-0.0841-0.86626-0.2542-1.2537l-0.3663 0.16079c0.1463 0.33322 0.2205 0.69673 0.2205 1.093h0.4zm-0.2535-1.2521c-0.1684-0.39287-0.4031-0.73588-0.7039-1.0273l-0.2783 0.2873c0.2617 0.25354 0.4665 0.55213 0.6145 0.89754l0.3677-0.15757zm-0.6994-1.0228c-0.2914-0.30078-0.6344-0.53547-1.0272-0.70385l-0.1576 0.36766c0.3454 0.14804 0.644 0.3528 0.8975 0.61451l0.2873-0.27832zm-1.0256-0.70315c-0.3875-0.17011-0.8062-0.25417-1.2538-0.25417v0.4c0.3963 0 0.7598 0.07414 1.093 0.22043l0.1608-0.36626zm-1.2538-0.25417h-4.2055v0.4h4.2055v-0.4zm-4.4055 0.2v15.662h0.4v-15.662h-0.4zm0.2 15.862h4.2055v-0.4h-4.2055v0.4zm4.2055 0c0.4476 0 0.8663-0.084 1.2538-0.2542l-0.1608-0.3662c-0.3332 0.1463-0.6967 0.2204-1.093 0.2204v0.4zm1.2522-0.2535c0.3915-0.1678 0.7338-0.3972 1.025-0.6884l-0.2828-0.2828c-0.2538 0.2537-0.553 0.455-0.8998 0.6036l0.1576 0.3676zm1.0227-0.6861c0.3-0.2906 0.5346-0.6285 0.7032-1.0125l-0.3663-0.1608c-0.1478 0.3367-0.3526 0.6316-0.6152 0.886l0.2783 0.2873zm0.7039-1.0141c0.1694-0.3953 0.2535-0.8178 0.2535-1.2653h-0.4c0 0.3962-0.0742 0.7647-0.2212 1.1077l0.3677 0.1576zm0.2535-1.2653v-9.6109h-0.4v9.6109h0.4zm14.433 4.6406-0.168 0.1073 0.058 0.0927h0.11v-0.2zm-5.128-8.0684 0.169-0.1072-0.059-0.0928h-0.11v0.2zm-2.3336 0v-0.2h-0.2v0.2h0.2zm0 8.0684v0.2h0.2v-0.2h-0.2zm-1.7006 0h-0.2v0.2h0.2v-0.2zm0-18.905v-0.2h-0.2v0.2h0.2zm7.8042 0.36914-0.08 0.18324 3e-3 0.00103 0.077-0.18427zm2.466 2.4785-0.185 0.07674 2e-3 0.00343 0.183-0.08017zm0 5.1548-0.184-0.0792v0.0014l0.184 0.0778zm-2.466 2.4785 0.078 0.1843 3e-3 -0.0011-0.081-0.1832zm-1.806 0.3559v-0.2h-0.364l0.196 0.3073 0.168-0.1073zm5.129 8.0684v0.2h0.364l-0.196-0.3073-0.168 0.1073zm-2.426-15.425-0.184 0.07878 1e-3 0.00161 0.183-0.08039zm-0.646-0.96241-0.144 0.13918 3e-3 0.00224 0.141-0.14142zm-0.962-0.65918-0.081 0.18314 2e-3 6.9e-4 0.079-0.18383zm-5.3926-0.2373v-0.2h-0.2v0.2h0.2zm0 7.5938h-0.2v0.2h0.2v-0.2zm5.3926-0.2373-0.079-0.1839-2e-3 7e-4 0.081 0.1832zm0.962-0.646 0.141 0.1414 3e-3 -0.0023-0.144-0.1391zm0.646-0.9624 0.183 0.0804 1e-3 -0.0017-0.184-0.0787zm0.63 11.428-5.128-8.0683-0.3379 0.2145 5.1289 8.0684 0.337-0.2146zm-5.297-8.1611h-2.3336v0.4h2.3336v-0.4zm-2.5336 0.2v8.0684h0.4v-8.0684h-0.4zm0.2 7.8684h-1.7006v0.4h1.7006v-0.4zm-1.5006 0.2v-18.905h-0.4v18.905h0.4zm-0.2-18.705h5.9982v-0.4h-5.9982v0.4zm5.9982 0c0.616 0 1.19 0.11783 1.726 0.35237l0.161-0.36646c-0.589-0.25765-1.219-0.38591-1.887-0.38591v0.4zm1.729 0.35341c0.539 0.22751 1.009 0.54273 1.413 0.94592l0.282-0.28284c-0.44-0.44057-0.954-0.78452-1.54-1.0316l-0.155 0.36855zm1.413 0.94592c0.402 0.40266 0.717 0.87704 0.945 1.425l0.369-0.15344c-0.247-0.59457-0.59-1.1134-1.032-1.5544l-0.282 0.28284zm0.947 1.4285c0.234 0.53608 0.352 1.1107 0.352 1.726h0.4c0-0.66793-0.128-1.2974-0.386-1.8863l-0.366 0.16033zm0.352 1.726v1.5293h0.4v-1.5293h-0.4zm0 1.5293c0 0.6153-0.118 1.1947-0.353 1.7402l0.367 0.1583c0.258-0.5971 0.386-1.2305 0.386-1.8985h-0.4zm-0.353 1.7416c-0.228 0.5393-0.543 1.0097-0.946 1.4129l0.282 0.2829c0.441-0.4406 0.785-0.9546 1.032-1.5403l-0.368-0.1555zm-0.946 1.4129c-0.404 0.4037-0.875 0.7238-1.416 0.9602l0.161 0.3664c0.584-0.2558 1.097-0.6037 1.537-1.0437l-0.282-0.2829zm-1.413 0.9591c-0.537 0.2264-1.112 0.3402-1.729 0.3402v0.4c0.667 0 1.296-0.1234 1.884-0.3716l-0.155-0.3686zm-1.897 0.6475 5.128 8.0684 0.337-0.2146-5.128-8.0683-0.337 0.2145zm5.297 7.7611h-1.965v0.4h1.965v-0.4zm-1.989-14.051c0-0.44754-0.084-0.86626-0.254-1.2537l-0.366 0.16079c0.146 0.33322 0.22 0.69673 0.22 1.093h0.4zm-0.253-1.2521c-0.168-0.39152-0.397-0.73383-0.689-1.025l-0.282 0.28284c0.253 0.25372 0.454 0.55301 0.603 0.89977l0.368-0.15757zm-0.686-1.0228c-0.292-0.30078-0.635-0.53547-1.028-0.70385l-0.157 0.36766c0.345 0.14804 0.644 0.3528 0.897 0.61451l0.288-0.27832zm-1.026-0.70315c-0.388-0.17011-0.806-0.25417-1.254-0.25417v0.4c0.396 0 0.76 0.07414 1.093 0.22043l0.161-0.36626zm-1.254-0.25417h-4.2186v0.4h4.2186v-0.4zm-4.4186 0.2v7.5938h0.4v-7.5938h-0.4zm0.2 7.7938h4.2186v-0.4h-4.2186v0.4zm4.2186 0c0.448 0 0.866-0.0841 1.254-0.2542l-0.161-0.3663c-0.333 0.1463-0.697 0.2205-1.093 0.2205v0.4zm1.252-0.2535c0.392-0.1678 0.734-0.3972 1.025-0.6884l-0.282-0.2829c-0.254 0.2537-0.553 0.455-0.9 0.6036l0.157 0.3677zm1.028-0.6907c0.289-0.2984 0.517-0.6391 0.685-1.0211l-0.366-0.1608c-0.149 0.3386-0.351 0.6395-0.607 0.9036l0.288 0.2783zm0.686-1.0228c0.169-0.3952 0.253-0.8177 0.253-1.2653h-0.4c0 0.3962-0.074 0.7648-0.221 1.1078l0.368 0.1575zm0.253-1.2653v-1.5293h-0.4v1.5293h0.4zm12.338 8.3189 0.192-0.0547-0.041-0.1453h-0.151v0.2zm-5.986 0v-0.2h-0.151l-0.041 0.1458 0.192 0.0542zm-1.239 4.4033v0.2h0.152l0.041-0.1458-0.193-0.0542zm-1.766 0-0.192-0.0562-0.075 0.2562h0.267v-0.2zm5.537-18.905v-0.2h-0.15l-0.042 0.14378 0.192 0.05622zm0.896 0 0.192-0.05647-0.042-0.14353h-0.15v0.2zm5.564 18.905v0.2h0.267l-0.075-0.2565-0.192 0.0565zm-1.754 0-0.192 0.0547 0.041 0.1453h0.151v-0.2zm-6.776-6.0249-0.192-0.0547-0.073 0.2547h0.265v-0.2zm5.076 0v0.2h0.265l-0.073-0.255-0.192 0.055zm-2.492-8.7144-0.2 0.01505 2e-3 0.02033 6e-3 0.0196 0.192-0.05498zm-0.053-0.69873 0.2-0.01505h-0.399l0.199 0.01505zm-0.053 0.69873 0.193 0.05472 5e-3 -0.01948 2e-3 -0.02019-0.2-0.01505zm3.046 10.136h-5.986v0.4h5.986v-0.4zm-6.178 0.1458-1.239 4.4033 0.385 0.1084 1.239-4.4033-0.385-0.1084zm-1.047 4.2575h-1.766v0.4h1.766v-0.4zm-1.574 0.2562 5.537-18.905-0.384-0.11243-5.537 18.905 0.384 0.1124zm5.345-18.761h0.896v-0.4h-0.896v0.4zm0.704-0.14354 5.564 18.905 0.384-0.113-5.564-18.905-0.384 0.11293zm5.756 18.649h-1.754v0.4h1.754v-0.4zm-1.561 0.1453-1.253-4.4033-0.385 0.1094 1.253 4.4033 0.385-0.1094zm-6.969-5.7702h5.076v-0.4h-5.076v0.4zm5.268-0.255-2.492-8.7143-0.384 0.10996 2.491 8.7144 0.385-0.11zm-2.485-8.6744-0.052-0.69873-0.399 0.0301 0.052 0.69873 0.399-0.0301zm-0.451-0.69873-0.053 0.69873 0.399 0.0301 0.053-0.69873-0.399-0.0301zm-0.046 0.65907-2.478 8.7144 0.384 0.1094 2.479-8.7143-0.385-0.10943zm12.44-2.4897v-0.2h-0.2v0.2h0.2zm0 17.284v0.2h0.2v-0.2h-0.2zm-1.701 0h-0.2v0.2h0.2v-0.2zm0-17.284h0.2v-0.2h-0.2v0.2zm-4.508 0h-0.2v0.2h0.2v-0.2zm0-1.6216v-0.2h-0.2v0.2h0.2zm10.718 0h0.2v-0.2h-0.2v0.2zm0 1.6216v0.2h0.2v-0.2h-0.2zm-4.709 0v17.284h0.4v-17.284h-0.4zm0.2 17.084h-1.701v0.4h1.701v-0.4zm-1.501 0.2v-17.284h-0.4v17.284h0.4zm-0.2-17.484h-4.508v0.4h4.508v-0.4zm-4.308 0.2v-1.6216h-0.4v1.6216h0.4zm-0.2-1.4216h10.718v-0.4h-10.718v0.4zm10.518-0.2v1.6216h0.4v-1.6216h-0.4zm0.2 1.4216h-4.509v0.4h4.509v-0.4zm2.716 17.484h-0.2v0.2h0.2v-0.2zm0-18.905v-0.2h-0.2v0.2h0.2zm10.639 0h0.2v-0.2h-0.2v0.2zm0 1.6216v0.2h0.2v-0.2h-0.2zm-8.939 0v-0.2h-0.2v0.2h0.2zm0 7.0269h-0.2v0.2h0.2v-0.2zm7.238 0h0.2v-0.2h-0.2v0.2zm0 1.6215v0.2h0.2v-0.2h-0.2zm-7.238 0v-0.2h-0.2v0.2h0.2zm0 7.0137h-0.2v0.2h0.2v-0.2zm8.939 0h0.2v-0.2h-0.2v0.2zm0 1.6216v0.2h0.2v-0.2h-0.2zm-10.439 0v-18.905h-0.4v18.905h0.4zm-0.2-18.705h10.639v-0.4h-10.639v0.4zm10.439-0.2v1.6216h0.4v-1.6216h-0.4zm0.2 1.4216h-8.939v0.4h8.939v-0.4zm-9.139 0.2v7.0269h0.4v-7.0269h-0.4zm0.2 7.2269h7.238v-0.4h-7.238v0.4zm7.038-0.2v1.6215h0.4v-1.6215h-0.4zm0.2 1.4215h-7.238v0.4h7.238v-0.4zm-7.438 0.2v7.0137h0.4v-7.0137h-0.4zm0.2 7.2137h8.939v-0.4h-8.939v0.4zm8.739-0.2v1.6216h0.4v-1.6216h-0.4zm0.2 1.4216h-10.639v0.4h10.639v-0.4zm13.249-2.3708-0.183-0.0802-1e-3 0.0025 0.184 0.0777zm-2.465 2.4785 0.078 0.1843 2e-3 -0.0011-0.08-0.1832zm-4.97 0-0.08 0.1833 3e-3 0.0014 0.077-0.1847zm-2.479-2.4785-0.184 0.0777 1e-3 0.0025 0.183-0.0802zm0-13.764-0.183-0.08017-1e-3 0.00243 0.184 0.07774zm2.479-2.4653 0.077 0.18427 2e-3 -5.9e-4 -0.079-0.18368zm4.97 0-0.08 0.18324 2e-3 0.00103 0.078-0.18427zm2.465 2.4653-0.184 0.07774 1e-3 0.00242 0.183-0.08016zm0.369 2.5708 0.031 0.19764 0.169-0.02626v-0.17138h-0.2zm-1.7 0.26367h-0.2v0.2334l0.23-0.03576-0.03-0.19764zm-0.238-2.2017-0.183 0.07879v0.00161l0.183-0.0804zm-1.608-1.6084-0.08 0.18314 1e-3 6.9e-4 0.079-0.18383zm-3.546 0-0.079-0.18383-2e-3 7e-4 0.081 0.18313zm-0.963 0.646-0.139-0.14367-2e-3 0.00225 0.141 0.14142zm-0.646 0.9624 0.183 0.0804 1e-3 -0.00162-0.184-0.07878zm0 12.511-0.184 0.0788 1e-3 0.0016 0.183-0.0804zm0.646 0.9624-0.143 0.1392 4e-3 0.0044 0.139-0.1436zm0.963 0.646-0.081 0.1831 2e-3 7e-4 0.079-0.1838zm3.546 0-0.079-0.1839-1e-3 7e-4 0.08 0.1832zm0.962-0.646 0.142 0.1414 2e-3 -0.0023-0.144-0.1391zm0.646-0.9624 0.184 0.0804v-0.0016l-0.184-0.0788zm0.238-2.2149 0.032-0.1974-0.232-0.0378v0.2352h0.2zm1.7 0.2769h0.2v-0.1701l-0.167-0.0273-0.033 0.1974zm-0.2 0.7514c0 0.6153-0.117 1.1899-0.352 1.726l0.366 0.1604c0.258-0.589 0.386-1.2184 0.386-1.8864h-0.4zm-0.353 1.7285c-0.228 0.5392-0.543 1.0097-0.946 1.4128l0.283 0.2829c0.44-0.4406 0.784-0.9545 1.032-1.5403l-0.369-0.1554zm-0.946 1.4128c-0.404 0.4038-0.875 0.7238-1.415 0.9602l0.16 0.3664c0.585-0.2557 1.098-0.6037 1.538-1.0437l-0.283-0.2829zm-1.413 0.9591c-0.536 0.2264-1.112 0.3403-1.728 0.3403v0.4c0.667 0 1.295-0.1235 1.884-0.3717l-0.156-0.3686zm-1.728 0.3403h-1.345v0.4h1.345v-0.4zm-1.345 0c-0.616 0-1.197-0.1139-1.743-0.3407l-0.153 0.3694c0.597 0.2478 1.229 0.3713 1.896 0.3713v-0.4zm-1.739-0.3392c-0.54-0.2364-1.012-0.5564-1.415-0.9602l-0.283 0.2829c0.44 0.44 0.953 0.788 1.538 1.0437l0.16-0.3664zm-1.415-0.9602c-0.404-0.4037-0.724-0.8749-0.961-1.4153l-0.366 0.1604c0.256 0.5846 0.604 1.0978 1.044 1.5378l0.283-0.2829zm-0.96-1.4128c-0.226-0.5367-0.34-1.1122-0.34-1.7285h-0.4c0 0.667 0.124 1.2956 0.372 1.8839l0.368-0.1554zm-0.34-1.7285v-10.151h-0.4v10.151h0.4zm0-10.151c0-0.61628 0.114-1.1918 0.34-1.7284l-0.368-0.15548c-0.248 0.58834-0.372 1.217-0.372 1.8839h0.4zm0.339-1.726c0.237-0.54033 0.557-1.0116 0.961-1.4153l-0.283-0.28285c-0.44 0.44003-0.788 0.95315-1.044 1.5378l0.366 0.16033zm0.961-1.4153c0.403-0.40319 0.873-0.71842 1.412-0.94592l-0.155-0.36855c-0.586 0.24711-1.1 0.59106-1.54 1.0316l0.283 0.28285zm1.414-0.94651c0.545-0.23499 1.125-0.35283 1.74-0.35283v-0.4c-0.668 0-1.301 0.12826-1.898 0.38546l0.158 0.36737zm1.74-0.35283h1.345v-0.4h-1.345v0.4zm1.345 0c0.615 0 1.19 0.11784 1.726 0.35238l0.16-0.36647c-0.589-0.25765-1.218-0.38591-1.886-0.38591v0.4zm1.728 0.35342c0.539 0.2275 1.01 0.54273 1.413 0.94592l0.283-0.28285c-0.441-0.44056-0.955-0.78451-1.54-1.0316l-0.156 0.36855zm1.413 0.94592c0.403 0.40318 0.718 0.87361 0.946 1.4129l0.369-0.15548c-0.248-0.58573-0.592-1.0997-1.032-1.5402l-0.283 0.28285zm0.947 1.4153c0.235 0.53609 0.352 1.1107 0.352 1.726h0.4c0-0.66793-0.128-1.2974-0.386-1.8863l-0.366 0.16033zm0.352 1.726v0.76465h0.4v-0.76465h-0.4zm0.17 0.56701-1.701 0.26367 0.061 0.39528 1.701-0.26367-0.061-0.39528zm-1.47 0.46131v-1.0283h-0.4v1.0283h0.4zm0-1.0283c0-0.44753-0.084-0.86626-0.254-1.2537l-0.367 0.1608c0.147 0.33322 0.221 0.69672 0.221 1.0929h0.4zm-0.254-1.2521c-0.168-0.39153-0.397-0.73383-0.688-1.025l-0.283 0.28284c0.254 0.25371 0.455 0.553 0.604 0.89976l0.367-0.15756zm-0.688-1.025c-0.291-0.29121-0.634-0.52061-1.025-0.68841l-0.158 0.36766c0.347 0.14861 0.646 0.34988 0.9 0.60359l0.283-0.28284zm-1.024-0.68771c-0.387-0.17011-0.806-0.25417-1.253-0.25417v0.4c0.396 0 0.759 0.07414 1.093 0.22043l0.16-0.36626zm-1.253-0.25417h-1.187v0.4h1.187v-0.4zm-1.187 0c-0.447 0-0.87 0.08406-1.265 0.25347l0.157 0.36766c0.343-0.147 0.712-0.22113 1.108-0.22113v-0.4zm-1.267 0.25417c-0.382 0.16772-0.723 0.39638-1.021 0.68548l0.278 0.2873c0.264-0.25583 0.565-0.45783 0.904-0.60652l-0.161-0.36626zm-1.023 0.68771c-0.291 0.29121-0.521 0.63351-0.689 1.025l0.368 0.15756c0.149-0.34676 0.35-0.64605 0.604-0.89976l-0.283-0.28284zm-0.688 1.0234c-0.17 0.38748-0.254 0.80621-0.254 1.2537h0.4c0-0.39622 0.074-0.75972 0.22-1.0929l-0.366-0.1608zm-0.254 1.2537v10.151h0.4v-10.151h-0.4zm0 10.151c0 0.4476 0.084 0.8701 0.253 1.2654l0.368-0.1576c-0.147-0.343-0.221-0.7116-0.221-1.1078h-0.4zm0.254 1.267c0.168 0.382 0.396 0.7227 0.686 1.0211l0.287-0.2783c-0.256-0.2641-0.458-0.5649-0.607-0.9036l-0.366 0.1608zm0.69 1.0256c0.298 0.2891 0.639 0.5178 1.021 0.6855l0.161-0.3663c-0.339-0.1487-0.64-0.3506-0.904-0.6065l-0.278 0.2873zm1.023 0.6862c0.395 0.1694 0.818 0.2535 1.265 0.2535v-0.4c-0.396 0-0.765-0.0742-1.108-0.2212l-0.157 0.3677zm1.265 0.2535h1.187v-0.4h-1.187v0.4zm1.187 0c0.447 0 0.866-0.0841 1.253-0.2542l-0.16-0.3663c-0.334 0.1463-0.697 0.2205-1.093 0.2205v0.4zm1.252-0.2535c0.391-0.1678 0.734-0.3972 1.025-0.6884l-0.283-0.2828c-0.254 0.2537-0.553 0.4549-0.9 0.6035l0.158 0.3677zm1.027-0.6907c0.289-0.2984 0.518-0.6391 0.686-1.0211l-0.367-0.1608c-0.148 0.3387-0.35 0.6395-0.606 0.9036l0.287 0.2783zm0.686-1.0227c0.17-0.3953 0.254-0.8178 0.254-1.2654h-0.4c0 0.3962-0.074 0.7648-0.221 1.1078l0.367 0.1576zm0.254-1.2654v-1.0283h-0.4v1.0283h0.4zm-0.232-0.8309 1.7 0.2769 0.065-0.3948-1.701-0.2769-0.064 0.3948zm1.532 0.0795v0.7514h0.4v-0.7514h-0.4zm12.936 5.1284h-0.2v0.2h0.2v-0.2zm0-8.6353h0.2v-0.2h-0.2v0.2zm-7.238 0v-0.2h-0.2v0.2h0.2zm0 8.6353v0.2h0.2v-0.2h-0.2zm-1.701 0h-0.2v0.2h0.2v-0.2zm0-18.905v-0.2h-0.2v0.2h0.2zm1.701 0h0.2v-0.2h-0.2v0.2zm0 8.6485h-0.2v0.2h0.2v-0.2zm7.238 0v0.2h0.2v-0.2h-0.2zm0-8.6485v-0.2h-0.2v0.2h0.2zm1.7 0h0.2v-0.2h-0.2v0.2zm0 18.905v0.2h0.2v-0.2h-0.2zm-1.5 0v-8.6353h-0.4v8.6353h0.4zm-0.2-8.8353h-7.238v0.4h7.238v-0.4zm-7.438 0.2v8.6353h0.4v-8.6353h-0.4zm0.2 8.4353h-1.701v0.4h1.701v-0.4zm-1.501 0.2v-18.905h-0.4v18.905h0.4zm-0.2-18.705h1.701v-0.4h-1.701v0.4zm1.501-0.2v8.6485h0.4v-8.6485h-0.4zm0.2 8.8485h7.238v-0.4h-7.238v0.4zm7.438-0.2v-8.6485h-0.4v8.6485h0.4zm-0.2-8.4485h1.7v-0.4h-1.7v0.4zm1.5-0.2v18.905h0.4v-18.905h-0.4zm0.2 18.705h-1.7v0.4h1.7v-0.4z"/>
<path d="m20.723 22.447-1.3443-2.0164c-0.1246-0.1871-0.3348-0.2993-0.5592-0.2993h-9.4098c-0.22448 0-0.43449 0.1122-0.55923 0.2994l-1.3442 2.0164c-0.13715 0.206-0.15024 0.4711-0.03347 0.6898s0.3445 0.355 0.59261 0.355h12.098c0.2482 0 0.4757-0.1367 0.5926-0.3552 0.117-0.2184 0.1037-0.4835-0.0334-0.6897zm-11.402-0.2993 0.44827-0.6722h8.6905l0.4483 0.6722h-9.587z" fill="#181818"/>
<path d="m27.557 4h-26.885c-0.37148 0-0.67216 0.30059-0.67216 0.67216v16.131c0 0.3715 0.30059 0.6722 0.67216 0.6722h26.885c0.3715 0 0.6722-0.3006 0.6722-0.6722v-16.131c-1e-4 -0.37157-0.3007-0.67216-0.6723-0.67216zm-0.672 16.131h-25.541v-14.787h25.541v14.787h1e-4z" fill="#181818"/>
<path d="m40.426 0h-10.754c-0.3715 0-0.6722 0.30059-0.6722 0.67216v22.18c0 0.3714 0.3006 0.6721 0.6722 0.6721h10.754c0.3715 0 0.6721-0.3006 0.6721-0.6721v-22.18c0-0.37148-0.3006-0.67216-0.6721-0.67216zm-0.6722 22.18h-9.4098v-20.836h9.4098v20.836z" fill="#181818"/>
<path d="m39.754 4.0328h-9.4098c-0.3714 0-0.6721 0.30059-0.6721 0.67216 0 0.37158 0.3006 0.67217 0.6721 0.67217h9.4098c0.3715 0 0.6722-0.30059 0.6722-0.67217 0-0.37157-0.3006-0.67216-0.6722-0.67216z" fill="#181818"/>
<path d="m39.754 7.3935h-9.4098c-0.3714 0-0.6721 0.30059-0.6721 0.67216 0 0.37158 0.3006 0.67216 0.6721 0.67216h9.4098c0.3715 0 0.6722-0.30058 0.6722-0.67216 0-0.37157-0.3006-0.67216-0.6722-0.67216z" fill="#181818"/>
<path d="m39.754 10.754h-9.4098c-0.3714 0-0.6721 0.3006-0.6721 0.6722s0.3006 0.6721 0.6721 0.6721h9.4098c0.3715 0 0.6722-0.3005 0.6722-0.6721s-0.3006-0.6722-0.6722-0.6722z" fill="#181818"/>
<path d="m36.394 10h-2.6886c-0.3714 0-0.6721 0.3006-0.6721 0.6722v2.6885c0 0.3715 0.3006 0.6722 0.6721 0.6722h2.6886c0.3715 0 0.6722-0.3006 0.6722-0.6722v-2.6885c0-0.3716-0.3007-0.6722-0.6722-0.6722zm-0.6722 2.6885h-1.3442v-1.3443h1.3442v1.3443z" fill="#181818"/>
</svg>
