<svg width="173" height="24" viewBox="0 0 173 24" fill="none" xmlns="http://www.w3.org/2000/svg">
<g clip-path="url(#clip0)">
<path d="M61.255 18.597H55.2696L54.0304 23.0003H52.2638L57.8009 4.09528H58.6974L64.2608 23.0003H62.5074L61.255 18.597V18.597ZM55.7311 16.9754H60.8067L58.315 8.26097L58.2623 7.56225L58.2096 8.26097L55.7311 16.9754ZM76.4291 23.0003L68.5453 9.23628L68.3871 8.41889V22.9999H66.6864V4.0949H67.5697L75.4535 17.8719L75.6249 18.6761V4.09509H77.3256V23.0001H76.4291V23.0003ZM92.3021 18.3597C92.3021 19.0013 92.1791 19.6033 91.933 20.1658C91.6957 20.7283 91.3661 21.2205 90.9442 21.6424C90.5224 22.0643 90.0258 22.3982 89.4545 22.6443C88.892 22.8816 88.2899 23.0003 87.6483 23.0003H81.663V4.09528H87.6483C88.2899 4.09528 88.892 4.21831 89.4545 4.46441C90.0258 4.70171 90.5224 5.0313 90.9442 5.45318C91.3661 5.87505 91.6957 6.37164 91.933 6.94289C92.1791 7.50539 92.3021 8.10749 92.3021 8.74909V18.36V18.3597ZM90.6015 8.74878C90.6015 8.3269 90.5224 7.93578 90.3642 7.57547C90.206 7.20632 89.9862 6.88553 89.705 6.61307C89.4325 6.33182 89.1117 6.11209 88.7426 5.95388C88.3822 5.79568 87.9911 5.71658 87.5692 5.71658H83.3637V21.3786H87.5692C87.9911 21.3786 88.3822 21.2995 88.7426 21.1413C89.1117 20.9831 89.4325 20.7678 89.705 20.4953C89.9862 20.2229 90.206 19.9064 90.3642 19.5461C90.5224 19.177 90.6015 18.7814 90.6015 18.3596V8.74868V8.74878ZM105.234 22.9998L100.106 14.9314H97.7729V22.9998H96.0723V4.09477H102.07C102.712 4.09477 103.314 4.21782 103.876 4.46392C104.439 4.70122 104.931 5.03081 105.353 5.45269C105.775 5.87456 106.104 6.37113 106.342 6.94238C106.588 7.50488 106.711 8.10698 106.711 8.74858V10.2779C106.711 10.9195 106.588 11.526 106.342 12.0973C106.104 12.6598 105.775 13.152 105.353 13.5738C104.931 13.9957 104.439 14.3297 103.876 14.5758C103.314 14.8131 102.712 14.9317 102.07 14.9317L107.199 23.0001H105.234V22.9998ZM105.01 8.74878C105.01 8.3269 104.931 7.93578 104.773 7.57547C104.615 7.20632 104.399 6.88553 104.127 6.61307C103.854 6.33182 103.534 6.11209 103.165 5.95388C102.804 5.79568 102.413 5.71658 101.991 5.71658H97.7729V13.3104H101.991C102.413 13.3104 102.804 13.2313 103.165 13.0731C103.534 12.9149 103.854 12.6995 104.127 12.4271C104.399 12.1458 104.615 11.825 104.773 11.4647C104.931 11.0955 105.01 10.7 105.01 10.2781V8.74879V8.74878ZM117.548 18.597H111.562L110.323 23.0003H108.557L114.094 4.09528H114.99L120.554 23.0003H118.8L117.548 18.597V18.597ZM112.024 16.9754H117.1L114.608 8.26097L114.555 7.56225L114.502 8.26097L112.024 16.9754ZM126.75 5.71638V23.0004H125.049V5.71638H120.541V4.09477H131.259V5.71638H126.75ZM133.975 23.0004V4.09537H144.614V5.71697H135.675V12.7439H142.913V14.3654H135.675V21.3791H144.614V23.0007H133.975V23.0004ZM158.232 18.6234C158.232 19.265 158.109 19.8671 157.863 20.4296C157.626 20.9921 157.296 21.4843 156.874 21.9062C156.453 22.328 155.96 22.662 155.398 22.9081C154.835 23.1454 154.233 23.2641 153.592 23.2641H152.247C151.605 23.2641 150.999 23.1454 150.428 22.9081C149.865 22.662 149.373 22.328 148.951 21.9062C148.529 21.4843 148.195 20.9921 147.949 20.4296C147.712 19.8671 147.593 19.265 147.593 18.6234V8.47237C147.593 7.83077 147.712 7.22878 147.949 6.66618C148.195 6.10368 148.529 5.61147 148.951 5.18957C149.373 4.7677 149.865 4.43811 150.428 4.20081C150.999 3.95471 151.605 3.83167 152.247 3.83167H153.592C154.233 3.83167 154.835 3.95471 155.398 4.20081C155.96 4.43811 156.453 4.7677 156.874 5.18957C157.296 5.61145 157.626 6.10365 157.863 6.66618C158.109 7.22868 158.232 7.83077 158.232 8.47237V9.23703L156.532 9.5007V8.47239C156.532 8.05051 156.453 7.6594 156.294 7.29909C156.136 6.92995 155.921 6.60915 155.648 6.33669C155.376 6.06423 155.055 5.8489 154.686 5.6907C154.326 5.5325 153.935 5.4534 153.513 5.4534H152.326C151.904 5.4534 151.509 5.5325 151.14 5.6907C150.779 5.8489 150.458 6.06423 150.177 6.33669C149.905 6.60915 149.689 6.92995 149.531 7.29909C149.373 7.65944 149.294 8.05055 149.294 8.47239V18.6234C149.294 19.0453 149.373 19.4408 149.531 19.81C149.689 20.1703 149.905 20.4911 150.177 20.7724C150.458 21.0448 150.779 21.2602 151.14 21.4184C151.509 21.5766 151.904 21.6557 152.326 21.6557H153.513C153.935 21.6557 154.326 21.5766 154.686 21.4184C155.055 21.2602 155.376 21.0448 155.648 20.7724C155.921 20.4911 156.136 20.1703 156.294 19.81C156.453 19.4408 156.532 19.0453 156.532 18.6234V17.5951L158.232 17.872V18.6234V18.6234ZM170.968 23.0004V14.3651H163.73V23.0004H162.029V4.09537H163.73V12.7439H170.968V4.09537H172.668V23.0004H170.968Z" fill="white"/>
<path d="M61.255 18.597L61.4474 18.5423L61.406 18.397H61.255V18.597V18.597ZM55.2696 18.597V18.397H55.1181L55.0771 18.5428L55.2696 18.597V18.597ZM54.0304 23.0003V23.2003H54.1819L54.2229 23.0545L54.0304 23.0003V23.0003ZM52.2638 23.0003L52.0718 22.9441L51.9968 23.2003H52.2638V23.0003ZM57.8009 4.09531V3.89531H57.6511L57.6089 4.03909L57.8009 4.09531V4.09531ZM58.6974 4.09531L58.8892 4.03884L58.847 3.89531H58.6974V4.09531ZM64.2608 23.0003V23.2003H64.5282L64.4527 22.9438L64.2608 23.0003V23.0003ZM62.5074 23.0003L62.3151 23.055L62.3564 23.2003H62.5074V23.0003ZM55.7311 16.9754L55.5387 16.9207L55.4662 17.1754H55.7311V16.9754ZM60.8067 16.9754V17.1754H61.0719L60.999 16.9204L60.8067 16.9754ZM58.315 8.261L58.1156 8.27605L58.1171 8.29639L58.1227 8.31599L58.315 8.261V8.261ZM58.2623 7.56228L58.4617 7.54723H58.0629L58.2623 7.56228V7.56228ZM58.2096 8.261L58.4019 8.31572L58.4075 8.29625L58.409 8.27605L58.2096 8.261V8.261ZM61.255 18.397H55.2696V18.797H61.255V18.397ZM55.0771 18.5428L53.8379 22.9461L54.2229 23.0545L55.4622 18.6512L55.0771 18.5428V18.5428ZM54.0304 22.8003H52.2638V23.2003H54.0304V22.8003ZM52.4557 23.0565L57.9928 4.15151L57.6089 4.03908L52.0718 22.9441L52.4557 23.0565V23.0565ZM57.8009 4.29551H58.6974V3.89551H57.8009V4.29551ZM58.5055 4.15197L64.069 23.057L64.4527 22.944L58.8892 4.03897L58.5055 4.1519V4.15197ZM64.2608 22.801H62.5074V23.201H64.2608V22.801ZM62.6998 22.9463L61.4474 18.543L61.0626 18.6524L62.3151 23.0557L62.6998 22.9463ZM55.7311 17.1761H60.8067V16.7761H55.7311V17.1761ZM60.999 16.9211L58.5073 8.20677L58.1227 8.31673L60.6144 17.0311L60.999 16.9211V16.9211ZM58.5145 8.24667L58.4617 7.54794L58.0629 7.57804L58.1156 8.27677L58.5145 8.24667ZM58.0629 7.54794L58.0101 8.24667L58.409 8.27677L58.4617 7.57804L58.0629 7.54794V7.54794ZM58.0172 8.20701L55.5387 16.9214L55.9234 17.0308L58.4019 8.3165L58.0172 8.20708V8.20701ZM76.4292 23.001L76.2557 23.1004L76.3133 23.201H76.4292V23.001V23.001ZM68.5454 9.23701L68.3491 9.275L68.3554 9.30761L68.3719 9.33641L68.5454 9.23701V9.23701ZM68.3872 8.41962L68.5836 8.38162L68.1872 8.41962H68.3872ZM68.3872 23.0006V23.2006H68.5872V23.0006H68.3872ZM66.6865 23.0006H66.4865V23.2006H66.6865V23.0006ZM66.6865 4.09563V3.89563H66.4865V4.09563H66.6865ZM67.5698 4.09563L67.7434 3.99629L67.6858 3.89563H67.5698V4.09563ZM75.4536 17.8726L75.6492 17.8309L75.6427 17.8004L75.6272 17.7732L75.4536 17.8726ZM75.625 18.6768L75.4294 18.7185L75.825 18.6768H75.625ZM75.625 4.09583V3.89583H75.425V4.09583H75.625ZM77.3257 4.09583H77.5257V3.89583H77.3257V4.09583ZM77.3257 23.0008V23.2008H77.5257V23.0008H77.3257ZM76.6027 22.9014L68.719 9.13742L68.3719 9.33624L76.2557 23.1002L76.6027 22.9014V22.9014ZM68.7418 9.19943L68.5836 8.38205L68.1909 8.45806L68.3491 9.27543L68.7418 9.19943ZM68.1872 8.42005V23.0011H68.5872V8.42005H68.1872V8.42005ZM68.3872 22.8011H66.6865V23.2011H68.3872V22.8011ZM66.8865 23.0011V4.09606H66.4865V23.0011H66.8865ZM66.6865 4.29606H67.5698V3.89606H66.6865V4.29606ZM67.3962 4.19539L75.28 17.9724L75.6272 17.7737L67.7434 3.99669L67.3962 4.19536V4.19539ZM75.258 17.9144L75.4294 18.7186L75.8206 18.6352L75.6492 17.831L75.258 17.9144ZM75.825 18.6769V4.09589H75.425V18.6769H75.825ZM75.625 4.29589H77.3257V3.89589H75.625V4.29589ZM77.1257 4.09589V23.0009H77.5257V4.09589H77.1257V4.09589ZM77.3257 22.8009H76.4292V23.2009H77.3257V22.8009ZM91.9327 20.1664L91.7495 20.0863L91.7484 20.0887L91.9327 20.1664ZM89.4542 22.6449L89.5319 22.8292L89.5333 22.8286L89.4542 22.6449ZM81.6627 23.0009H81.4627V23.2009H81.6627V23.0009ZM81.6627 4.09589V3.89589H81.4627V4.09589H81.6627ZM89.4542 4.46503L89.374 4.64829L89.3775 4.64973L89.4542 4.46503V4.46503ZM91.9327 6.94353L91.748 7.02027L91.7495 7.0237L91.9327 6.94353V6.94353ZM90.3639 7.57635L90.18 7.65513L90.1807 7.65674L90.3639 7.57635ZM89.7047 6.61394L89.561 6.75317L89.5655 6.75759L89.7047 6.61394ZM88.7423 5.95476L88.6619 6.1379L88.6635 6.13859L88.7423 5.95476V5.95476ZM83.3634 5.71746V5.51746H83.1634V5.71746H83.3634ZM83.3634 21.3795H83.1634V21.5795H83.3634V21.3795ZM88.7423 21.1422L88.6635 20.9584L88.6619 20.9591L88.7423 21.1422V21.1422ZM89.7047 20.4962L89.5655 20.3526L89.5633 20.3548L89.7047 20.4962ZM90.3639 19.547L90.547 19.6274L90.5477 19.6258L90.3639 19.547V19.547ZM92.1018 18.3605C92.1018 18.9758 91.984 19.5504 91.7495 20.0865L92.1159 20.2468C92.3736 19.6579 92.5018 19.0284 92.5018 18.3605H92.1018ZM91.7484 20.0889C91.5209 20.6282 91.2057 21.0986 90.8025 21.5018L91.0854 21.7846C91.5259 21.344 91.8699 20.8301 92.117 20.2444L91.7484 20.0889V20.0889ZM90.8025 21.5018C90.3993 21.905 89.9241 22.2249 89.3751 22.4615L89.5333 22.8288C90.1269 22.5731 90.6448 22.2251 91.0854 21.7846L90.8025 21.5018V21.5018ZM89.3764 22.4609C88.8398 22.6873 88.2643 22.8011 87.648 22.8011V23.2011C88.315 23.2011 88.9436 23.0776 89.5319 22.8294L89.3764 22.4609V22.4609ZM87.648 22.8011H81.6627V23.2011H87.648V22.8011ZM81.8627 23.0011V4.09606H81.4627V23.0011H81.8627ZM81.6627 4.29606H87.648V3.89606H81.6627V4.29606ZM87.648 4.29606C88.2633 4.29606 88.8379 4.41389 89.374 4.64843L89.5344 4.28197C88.9454 4.02432 88.316 3.89606 87.648 3.89606V4.29606ZM89.3775 4.6499C89.9255 4.87753 90.3998 5.19272 90.8025 5.59539L91.0854 5.31255C90.6443 4.87146 90.1255 4.52747 89.5309 4.28055L89.3775 4.64995V4.6499ZM90.8025 5.59539C91.2052 5.99805 91.5204 6.47243 91.748 7.02039L92.1174 6.86695C91.8704 6.27238 91.5264 5.75355 91.0854 5.31255L90.8025 5.59539ZM91.7495 7.02389C91.984 7.55997 92.1018 8.13459 92.1018 8.74989H92.5018C92.5018 8.08196 92.3736 7.45249 92.1159 6.86359L91.7495 7.02392V7.02389ZM92.1018 8.74989V18.3608H92.5018V8.74989H92.1018ZM90.8012 8.74989C90.8012 8.30235 90.7171 7.88363 90.547 7.49619L90.1807 7.65698C90.327 7.9902 90.4012 8.35371 90.4012 8.74998H90.8012V8.74989ZM90.5477 7.49779C90.3793 7.10492 90.1446 6.76191 89.8438 6.47049L89.5655 6.75779C89.8272 7.01133 90.032 7.30992 90.18 7.65533L90.5477 7.49776V7.49779ZM89.8483 6.47499C89.5569 6.17421 89.2139 5.93952 88.8211 5.77114L88.6635 6.1388C89.0089 6.28684 89.3075 6.4916 89.561 6.75331L89.8483 6.47499ZM88.8227 5.77184C88.4352 5.60173 88.0165 5.51767 87.5689 5.51767V5.91767C87.9652 5.91767 88.3287 5.99181 88.6619 6.1381L88.8227 5.77184V5.77184ZM87.5689 5.51767H83.3634V5.91767H87.5689V5.51767ZM83.1634 5.71767V21.3797H83.5634V5.71767H83.1634ZM83.3634 21.5797H87.5689V21.1797H83.3634V21.5797ZM87.5689 21.5797C88.0165 21.5797 88.4352 21.4957 88.8227 21.3255L88.6619 20.9593C88.3287 21.1056 87.9652 21.1797 87.5689 21.1797V21.5797ZM88.8211 21.3262C89.2126 21.1584 89.5549 20.929 89.8461 20.6378L89.5633 20.355C89.3095 20.6087 89.0103 20.81 88.6635 20.9586L88.8211 21.3262V21.3262ZM89.8438 20.6401C90.1438 20.3495 90.3784 20.0116 90.547 19.6276L90.1807 19.4668C90.0329 19.8035 89.8281 20.0984 89.5655 20.3528L89.8438 20.6401ZM90.5477 19.626C90.7171 19.2307 90.8012 18.8082 90.8012 18.3607H90.4012C90.4012 18.7569 90.327 19.1254 90.18 19.4684L90.5477 19.626ZM90.8012 18.3607V8.74976H90.4012V18.3607H90.8012ZM105.234 23.0013L105.066 23.1086L105.124 23.2013H105.234V23.0013ZM100.106 14.9329L100.275 14.8257L100.216 14.7329H100.106V14.9329V14.9329ZM97.7726 14.9329V14.7329H97.5726V14.9329H97.7726ZM97.7726 23.0013V23.2013H97.9726V23.0013H97.7726ZM96.072 23.0013H95.872V23.2013H96.072V23.0013ZM96.072 4.09627V3.89627H95.872V4.09627H96.072ZM103.876 4.46541L103.796 4.64865L103.799 4.64968L103.876 4.46541ZM106.342 6.94391L106.157 7.02065L106.159 7.02408L106.342 6.94391ZM106.342 12.0987L106.158 12.0195V12.0209L106.342 12.0987ZM103.876 14.5772L103.954 14.7615L103.957 14.7604L103.876 14.5772V14.5772ZM102.07 14.9331V14.7331H101.706L101.902 15.0404L102.07 14.9331ZM107.199 23.0015V23.2015H107.563L107.367 22.8942L107.199 23.0015V23.0015ZM104.773 7.57651L104.589 7.65529L104.59 7.6569L104.773 7.57651V7.57651ZM104.127 6.6141L103.983 6.75328L103.986 6.75552L104.127 6.6141V6.6141ZM103.165 5.95492L103.084 6.13806L103.086 6.13875L103.165 5.95492V5.95492ZM97.7726 5.71762V5.51762H97.5726V5.71762H97.7726ZM97.7726 13.3114H97.5726V13.5114H97.7726V13.3114ZM103.165 13.0741L103.086 12.8902L103.084 12.8909L103.165 13.0741V13.0741ZM104.127 12.4281L104.268 12.5695L104.271 12.5672L104.127 12.4281V12.4281ZM104.773 11.4657L104.956 11.5461L104.957 11.5444L104.773 11.4657V11.4657ZM105.403 22.8937L100.275 14.8254L99.9373 15.0399L105.066 23.1083L105.403 22.8937V22.8937ZM100.106 14.7326H97.7726V15.1326H100.106V14.7326ZM97.5726 14.9326V23.001H97.9726V14.9326H97.5726V14.9326ZM97.7726 22.801H96.072V23.201H97.7726V22.801ZM96.272 23.001V4.09602H95.872V23.001H96.272ZM96.072 4.29602H102.07V3.89602H96.072V4.29602ZM102.07 4.29602C102.686 4.29602 103.26 4.41385 103.796 4.64839L103.957 4.28193C103.368 4.02428 102.738 3.89602 102.07 3.89602V4.29602ZM103.799 4.64943C104.338 4.87694 104.808 5.19216 105.212 5.59535L105.494 5.31251C105.054 4.87194 104.54 4.52799 103.954 4.28091L103.799 4.64946V4.64943ZM105.212 5.59535C105.614 5.99801 105.929 6.47239 106.157 7.02035L106.526 6.86691C106.279 6.27234 105.936 5.75351 105.494 5.31251L105.212 5.59535ZM106.159 7.02385C106.393 7.55993 106.511 8.13455 106.511 8.74985H106.911C106.911 8.08192 106.783 7.45245 106.525 6.86355L106.159 7.02388V7.02385ZM106.511 8.74985V10.2791H106.911V8.74985H106.511ZM106.511 10.2791C106.511 10.8944 106.393 11.4738 106.158 12.0193L106.525 12.1776C106.783 11.5805 106.911 10.9471 106.911 10.2791H106.511ZM106.158 12.0207C105.93 12.56 105.615 13.0304 105.212 13.4336L105.494 13.7165C105.935 13.2759 106.279 12.7619 106.526 12.1762L106.158 12.0207ZM105.212 13.4336C104.808 13.8373 104.337 14.1574 103.796 14.3938L103.957 14.7602C104.541 14.5044 105.054 14.1565 105.494 13.7165L105.212 13.4336V13.4336ZM103.799 14.3927C103.262 14.6191 102.687 14.7329 102.07 14.7329V15.1329C102.737 15.1329 103.366 15.0095 103.954 14.7613L103.799 14.3927V14.3927ZM101.902 15.0402L107.03 23.1086L107.367 22.894L102.239 14.8257L101.902 15.0402V15.0402ZM107.199 22.8013H105.234V23.2013H107.199V22.8013ZM105.21 8.75035C105.21 8.30281 105.126 7.88409 104.956 7.49665L104.59 7.65744C104.736 7.99066 104.81 8.35417 104.81 8.75044H105.21V8.75035ZM104.957 7.49825C104.789 7.10673 104.56 6.76442 104.268 6.47325L103.986 6.75609C104.239 7.00981 104.44 7.3091 104.589 7.65586L104.957 7.49829V7.49825ZM104.271 6.47545C103.979 6.17467 103.636 5.93998 103.243 5.7716L103.086 6.13926C103.431 6.2873 103.73 6.49206 103.983 6.75377L104.271 6.47545ZM103.245 5.7723C102.857 5.60219 102.439 5.51813 101.991 5.51813V5.91813C102.387 5.91813 102.751 5.99227 103.084 6.13856L103.245 5.7723V5.7723ZM101.991 5.51813H97.7726V5.91813H101.991V5.51813ZM97.5726 5.71813V13.3119H97.9726V5.71813H97.5726ZM97.7726 13.5119H101.991V13.1119H97.7726V13.5119ZM101.991 13.5119C102.439 13.5119 102.857 13.4278 103.245 13.2577L103.084 12.8914C102.751 13.0377 102.387 13.1119 101.991 13.1119V13.5119V13.5119ZM103.243 13.2584C103.635 13.0906 103.977 12.8612 104.268 12.57L103.986 12.2871C103.732 12.5408 103.433 12.7421 103.086 12.8907L103.243 13.2584ZM104.271 12.5677C104.56 12.2693 104.788 11.9286 104.956 11.5466L104.59 11.3858C104.441 11.7244 104.239 12.0253 103.983 12.2894L104.271 12.5677ZM104.957 11.5449C105.126 11.1497 105.21 10.7272 105.21 10.2796H104.81C104.81 10.6758 104.736 11.0444 104.589 11.3874L104.957 11.5449V11.5449ZM105.21 10.2796V8.75033H104.81V10.2796H105.21V10.2796ZM117.548 18.5985L117.74 18.5438L117.699 18.3985H117.548V18.5985ZM111.562 18.5985V18.3985H111.411L111.37 18.5443L111.562 18.5985V18.5985ZM110.323 23.0018V23.2018H110.475L110.516 23.056L110.323 23.0018V23.0018ZM108.557 23.0018L108.365 22.9456L108.29 23.2018H108.557V23.0018ZM114.094 4.09683V3.89683H113.944L113.902 4.04061L114.094 4.09683V4.09683ZM114.99 4.09683L115.182 4.04036L115.14 3.89683H114.99V4.09683V4.09683ZM120.554 23.0018V23.2018H120.821L120.746 22.9453L120.554 23.0018ZM118.8 23.0018L118.608 23.0565L118.649 23.2018H118.8V23.0018ZM112.024 16.9769L111.832 16.9222L111.759 17.1769H112.024V16.9769V16.9769ZM117.1 16.9769V17.1769H117.365L117.292 16.9219L117.1 16.9769V16.9769ZM114.608 8.26253L114.408 8.27758L114.41 8.29791L114.416 8.31751L114.608 8.26253V8.26253ZM114.555 7.5638L114.755 7.54875H114.356L114.555 7.5638ZM114.502 8.26253L114.695 8.31725L114.7 8.29777L114.702 8.27758L114.502 8.26253V8.26253ZM117.548 18.3985H111.562V18.7985H117.548V18.3985ZM111.37 18.5443L110.131 22.9476L110.516 23.056L111.755 18.6527L111.37 18.5443V18.5443ZM110.323 22.8018H108.557V23.2018H110.323V22.8018ZM108.749 23.058L114.286 4.15303L113.902 4.0406L108.365 22.9456L108.749 23.058V23.058ZM114.094 4.29703H114.99V3.89703H114.094V4.29703ZM114.798 4.15349L120.362 23.0585L120.746 22.9455L115.182 4.04049L114.798 4.15342V4.15349ZM120.554 22.8025H118.8V23.2025H120.554V22.8025ZM118.993 22.9478L117.74 18.5445L117.355 18.6539L118.608 23.0572L118.993 22.9478ZM112.024 17.1776H117.1V16.7776H112.024V17.1776ZM117.292 16.9226L114.8 8.20828L114.416 8.31825L116.907 17.0326L117.292 16.9226V16.9226ZM114.807 8.24819L114.755 7.54946L114.356 7.57956L114.408 8.27829L114.807 8.24819ZM114.356 7.54946L114.303 8.24819L114.702 8.27829L114.755 7.57956L114.356 7.54946V7.54946ZM114.31 8.20853L111.832 16.9229L112.216 17.0323L114.695 8.31803L114.31 8.20859V8.20853ZM126.75 5.71883V5.51883H126.55V5.71883H126.75ZM126.75 23.0028V23.2028H126.95V23.0028H126.75ZM125.049 23.0028H124.849V23.2028H125.049V23.0028ZM125.049 5.71883H125.249V5.51883H125.049V5.71883ZM120.541 5.71883H120.341V5.91883H120.541V5.71883ZM120.541 4.09723V3.89723H120.341V4.09723H120.541ZM131.259 4.09723H131.459V3.89723H131.259V4.09723ZM131.259 5.71883V5.91883H131.459V5.71883H131.259ZM126.55 5.71883V23.0028H126.95V5.71883H126.55ZM126.75 22.8028H125.049V23.2028H126.75V22.8028ZM125.249 23.0028V5.71883H124.849V23.0028H125.249ZM125.049 5.51883H120.541V5.91883H125.049V5.51883ZM120.741 5.71883V4.09723H120.341V5.71883H120.741ZM120.541 4.29723H131.259V3.89723H120.541V4.29723ZM131.059 4.09723V5.71883H131.459V4.09723H131.059ZM131.259 5.51883H126.75V5.91883H131.259V5.51883ZM133.975 23.0028H133.775V23.2028H133.975V23.0028ZM133.975 4.09783V3.89783H133.775V4.09783H133.975ZM144.614 4.09783H144.814V3.89783H144.614V4.09783ZM144.614 5.71943V5.91943H144.814V5.71943H144.614ZM135.675 5.71943V5.51943H135.475V5.71943H135.675ZM135.675 12.7463H135.475V12.9463H135.675V12.7463ZM142.913 12.7463H143.113V12.5463H142.913V12.7463ZM142.913 14.3678V14.5678H143.113V14.3678H142.913ZM135.675 14.3678V14.1678H135.475V14.3678H135.675ZM135.675 21.3815H135.475V21.5815H135.675V21.3815ZM144.614 21.3815H144.814V21.1815H144.614V21.3815ZM144.614 23.0031V23.2031H144.814V23.0031H144.614ZM134.175 23.0031V4.09813H133.775V23.0031H134.175ZM133.975 4.29813H144.614V3.89813H133.975V4.29813ZM144.414 4.09813V5.71973H144.814V4.09813H144.414ZM144.614 5.51973H135.675V5.91973H144.614V5.51973ZM135.475 5.71973V12.7466H135.875V5.71973H135.475V5.71973ZM135.675 12.9466H142.913V12.5466H135.675V12.9466ZM142.713 12.7466V14.3681H143.113V12.7466H142.713ZM142.913 14.1681H135.675V14.5681H142.913V14.1681ZM135.475 14.3681V21.3818H135.875V14.3681H135.475V14.3681ZM135.675 21.5818H144.614V21.1818H135.675V21.5818ZM144.414 21.3818V23.0034H144.814V21.3818H144.414ZM144.614 22.8034H133.975V23.2034H144.614V22.8034ZM157.863 20.4326L157.68 20.3524L157.679 20.3549L157.863 20.4326ZM155.398 22.9111L155.476 23.0954L155.478 23.0943L155.398 22.9111ZM150.428 22.9111L150.348 23.0944L150.351 23.0958L150.428 22.9111V22.9111ZM147.949 20.4326L147.765 20.5103L147.766 20.5128L147.949 20.4326ZM147.949 6.66863L147.766 6.58846L147.765 6.59089L147.949 6.66863V6.66863ZM150.428 4.20333L150.505 4.3876L150.507 4.38701L150.428 4.20333ZM155.398 4.20333L155.318 4.38657L155.32 4.3876L155.398 4.20333ZM157.863 6.66863L157.679 6.74637L157.68 6.74879L157.863 6.66863ZM158.232 9.23943L158.263 9.43707L158.432 9.41081V9.23943H158.232V9.23943ZM156.532 9.5031H156.332V9.7365L156.562 9.70074L156.532 9.5031ZM156.294 7.3014L156.111 7.38019V7.3818L156.294 7.3014ZM154.686 5.693L154.606 5.87614L154.607 5.87683L154.686 5.693V5.693ZM151.14 5.693L151.061 5.50917L151.059 5.50987L151.14 5.693V5.693ZM150.177 6.339L150.038 6.19533L150.036 6.19758L150.177 6.339V6.339ZM149.531 7.3014L149.714 7.3818L149.715 7.38018L149.531 7.3014ZM149.531 19.8124L149.347 19.8912L149.348 19.8928L149.531 19.8124ZM150.177 20.7748L150.034 20.914L150.038 20.9184L150.177 20.7748ZM151.14 21.4208L151.059 21.6039L151.061 21.6046L151.14 21.4208V21.4208ZM154.686 21.4208L154.607 21.2369L154.606 21.2376L154.686 21.4208V21.4208ZM155.648 20.7748L155.79 20.9162L155.792 20.9139L155.648 20.7748ZM156.294 19.8124L156.478 19.8928V19.8912L156.294 19.8124ZM156.532 17.5975L156.564 17.4001L156.332 17.3623V17.5975H156.532ZM158.232 17.8744H158.432V17.7043L158.265 17.677L158.232 17.8744V17.8744ZM158.032 18.6258C158.032 19.2411 157.915 19.8157 157.68 20.3518L158.046 20.5122C158.304 19.9232 158.432 19.2938 158.432 18.6258H158.032ZM157.679 20.3543C157.451 20.8935 157.136 21.364 156.733 21.7671L157.016 22.05C157.456 21.6094 157.8 21.0955 158.048 20.5097L157.679 20.3543V20.3543ZM156.733 21.7671C156.329 22.1709 155.858 22.4909 155.318 22.7273L155.478 23.0937C156.063 22.838 156.576 22.49 157.016 22.05L156.733 21.7671V21.7671ZM155.32 22.7262C154.784 22.9526 154.208 23.0665 153.592 23.0665V23.4665C154.259 23.4665 154.887 23.343 155.476 23.0948L155.32 22.7262V22.7262ZM153.592 23.0665H152.247V23.4665H153.592V23.0665ZM152.247 23.0665C151.631 23.0665 151.05 22.9526 150.504 22.7258L150.351 23.0952C150.948 23.343 151.58 23.4665 152.247 23.4665V23.0665V23.0665ZM150.508 22.7273C149.968 22.4909 149.496 22.1709 149.093 21.7671L148.81 22.05C149.25 22.49 149.763 22.838 150.348 23.0937L150.508 22.7273V22.7273ZM149.093 21.7671C148.689 21.3634 148.369 20.8922 148.132 20.3518L147.766 20.5122C148.022 21.0968 148.37 21.61 148.81 22.05L149.093 21.7671V21.7671ZM148.133 20.3543C147.907 19.8176 147.793 19.2421 147.793 18.6258H147.393C147.393 19.2928 147.517 19.9214 147.765 20.5097L148.133 20.3543ZM147.793 18.6258V8.47479H147.393V18.6258H147.793ZM147.793 8.47479C147.793 7.85851 147.907 7.283 148.133 6.7464L147.765 6.59092C147.517 7.17926 147.393 7.80791 147.393 8.47481H147.793V8.47479ZM148.132 6.7488C148.369 6.20847 148.689 5.7372 149.093 5.3335L148.81 5.05065C148.37 5.49068 148.022 6.0038 147.766 6.58845L148.132 6.74878V6.7488ZM149.093 5.3335C149.496 4.93031 149.966 4.61508 150.505 4.38758L150.35 4.01903C149.764 4.26614 149.25 4.61009 148.81 5.05063L149.093 5.33348V5.3335ZM150.507 4.38699C151.052 4.152 151.632 4.03416 152.247 4.03416V3.63416C151.579 3.63416 150.946 3.76242 150.349 4.01962L150.507 4.38699ZM152.247 4.03416H153.592V3.63416H152.247V4.03416ZM153.592 4.03416C154.207 4.03416 154.782 4.152 155.318 4.38654L155.478 4.02007C154.889 3.76242 154.26 3.63416 153.592 3.63416V4.03416V4.03416ZM155.32 4.38758C155.859 4.61508 156.33 4.93031 156.733 5.3335L157.016 5.05065C156.575 4.61009 156.061 4.26614 155.476 4.01905L155.32 4.3876V4.38758ZM156.733 5.3335C157.136 5.73668 157.451 6.20711 157.679 6.7464L158.048 6.59092C157.8 6.00519 157.456 5.49122 157.016 5.05072L156.733 5.33357V5.3335ZM157.68 6.7488C157.915 7.28489 158.032 7.85949 158.032 8.47479H158.432C158.432 7.80686 158.304 7.1774 158.046 6.5885L157.68 6.74883V6.7488ZM158.032 8.47479V9.23945H158.432V8.47479H158.032ZM158.202 9.0418L156.501 9.30548L156.562 9.70076L158.263 9.43709L158.202 9.0418ZM156.732 9.50312V8.47481H156.332V9.50312H156.732ZM156.732 8.47481C156.732 8.02728 156.648 7.60856 156.478 7.22112L156.111 7.38192C156.258 7.71514 156.332 8.07863 156.332 8.47481H156.732V8.47481ZM156.478 7.22272C156.31 6.83119 156.081 6.48889 155.79 6.19772L155.507 6.48056C155.761 6.73427 155.962 7.03356 156.111 7.38032L156.478 7.22276V7.22272ZM155.79 6.19772C155.499 5.90651 155.156 5.67711 154.765 5.50931L154.607 5.87697C154.954 6.02558 155.253 6.22685 155.507 6.48056L155.79 6.19772V6.19772ZM154.766 5.51001C154.379 5.3399 153.96 5.25584 153.513 5.25584V5.65584C153.909 5.65584 154.272 5.72998 154.606 5.87627L154.766 5.51001V5.51001ZM153.513 5.25584H152.326V5.65584H153.513V5.25584ZM152.326 5.25584C151.879 5.25584 151.456 5.3399 151.061 5.50931L151.218 5.87697C151.561 5.72997 151.93 5.65584 152.326 5.65584V5.25584V5.25584ZM151.059 5.51001C150.677 5.67773 150.336 5.90639 150.038 6.19549L150.316 6.48279C150.58 6.22696 150.881 6.02496 151.22 5.87627L151.059 5.51001V5.51001ZM150.036 6.19772C149.745 6.48893 149.515 6.83123 149.347 7.22272L149.715 7.38028C149.864 7.03352 150.065 6.73423 150.319 6.48052L150.036 6.19768V6.19772ZM149.348 7.22112C149.178 7.6086 149.094 8.02732 149.094 8.47481H149.494C149.494 8.07859 149.568 7.7151 149.714 7.38192L149.348 7.22112ZM149.094 8.47481V18.6258H149.494V8.47481H149.094ZM149.094 18.6258C149.094 19.0734 149.178 19.4959 149.347 19.8912L149.715 19.7336C149.568 19.3906 149.494 19.022 149.494 18.6258H149.094V18.6258ZM149.348 19.8928C149.516 20.2748 149.744 20.6155 150.034 20.9139L150.321 20.6356C150.065 20.3715 149.863 20.0707 149.714 19.732L149.348 19.8928V19.8928ZM150.038 20.9184C150.336 21.2075 150.677 21.4362 151.059 21.6039L151.22 21.2376C150.881 21.0889 150.58 20.887 150.316 20.6311L150.038 20.9184ZM151.061 21.6046C151.456 21.774 151.879 21.8581 152.326 21.8581V21.4581C151.93 21.4581 151.561 21.3839 151.218 21.2369L151.061 21.6046V21.6046ZM152.326 21.8581H153.513V21.4581H152.326V21.8581ZM153.513 21.8581C153.96 21.8581 154.379 21.774 154.766 21.6039L154.606 21.2376C154.272 21.3839 153.909 21.4581 153.513 21.4581V21.8581ZM154.765 21.6046C155.156 21.4368 155.499 21.2074 155.79 20.9162L155.507 20.6334C155.253 20.8871 154.954 21.0883 154.607 21.2369L154.765 21.6046V21.6046ZM155.792 20.9139C156.081 20.6155 156.31 20.2748 156.478 19.8928L156.111 19.732C155.963 20.0707 155.761 20.3715 155.505 20.6356L155.792 20.9139V20.9139ZM156.478 19.8912C156.648 19.4959 156.732 19.0734 156.732 18.6258H156.332C156.332 19.022 156.258 19.3906 156.111 19.7336L156.478 19.8912V19.8912ZM156.732 18.6258V17.5975H156.332V18.6258H156.732ZM156.5 17.7949L158.2 18.0718L158.265 17.677L156.564 17.4001L156.5 17.7949ZM158.032 17.8744V18.6258H158.432V17.8744H158.032ZM170.968 23.0028H170.768V23.2028H170.968V23.0028ZM170.968 14.3675H171.168V14.1675H170.968V14.3675ZM163.73 14.3675V14.1675H163.53V14.3675H163.73ZM163.73 23.0028V23.2028H163.93V23.0028H163.73ZM162.029 23.0028H161.829V23.2028H162.029V23.0028ZM162.029 4.09782V3.89782H161.829V4.09782H162.029ZM163.73 4.09782H163.93V3.89782H163.73V4.09782ZM163.73 12.7463H163.53V12.9463H163.73V12.7463ZM170.968 12.7463V12.9463H171.168V12.7463H170.968ZM170.968 4.09782V3.89782H170.768V4.09782H170.968ZM172.668 4.09782H172.868V3.89782H172.668V4.09782ZM172.668 23.0028V23.2028H172.868V23.0028H172.668ZM171.168 23.0028V14.3675H170.768V23.0028H171.168ZM170.968 14.1675H163.73V14.5675H170.968V14.1675ZM163.53 14.3675V23.0028H163.93V14.3675H163.53ZM163.73 22.8028H162.029V23.2028H163.73V22.8028ZM162.229 23.0028V4.09782H161.829V23.0028H162.229ZM162.029 4.29782H163.73V3.89782H162.029V4.29782ZM163.53 4.09782V12.7463H163.93V4.09782H163.53V4.09782ZM163.73 12.9463H170.968V12.5463H163.73V12.9463ZM171.168 12.7463V4.09782H170.768V12.7463H171.168ZM170.968 4.29782H172.668V3.89782H170.968V4.29782ZM172.468 4.09782V23.0028H172.868V4.09782H172.468V4.09782ZM172.668 22.8028H170.968V23.2028H172.668V22.8028Z" fill="white"/>
<path d="M20.723 22.447L19.3787 20.4306C19.2541 20.2435 19.0439 20.1313 18.8195 20.1313H9.40968C9.1852 20.1313 8.97519 20.2435 8.85045 20.4307L7.50625 22.4471C7.3691 22.6531 7.35601 22.9182 7.47278 23.1369C7.58955 23.3556 7.81728 23.4919 8.06539 23.4919H20.1634C20.4116 23.4919 20.6391 23.3552 20.756 23.1367C20.873 22.9183 20.8597 22.6532 20.7226 22.447H20.723ZM9.32098 22.1477L9.76925 21.4755H18.4597L18.908 22.1477H9.32105H9.32098Z" fill="white"/>
<path d="M27.557 4H0.671977C0.300497 4 -0.000183105 4.30059 -0.000183105 4.67216V20.8032C-0.000183105 21.1747 0.300407 21.4754 0.671977 21.4754H27.557C27.9285 21.4754 28.2292 21.1748 28.2292 20.8032V4.67216C28.2291 4.30059 27.9285 4 27.5569 4H27.557ZM26.885 20.131H1.34398V5.344H26.885V20.131H26.8851H26.885Z" fill="white"/>
<path d="M40.426 0H29.672C29.3005 0 28.9998 0.30059 28.9998 0.67216V22.8522C28.9998 23.2236 29.3004 23.5243 29.672 23.5243H40.426C40.7975 23.5243 41.0981 23.2237 41.0981 22.8522V0.67216C41.0981 0.30068 40.7975 0 40.426 0V0ZM39.7538 22.18H30.344V1.344H39.7538V22.18Z" fill="white"/>
<path d="M39.754 4.03278H30.3442C29.9728 4.03278 29.6721 4.33337 29.6721 4.70494C29.6721 5.07652 29.9727 5.37711 30.3442 5.37711H39.754C40.1255 5.37711 40.4262 5.07652 40.4262 4.70494C40.4262 4.33337 40.1256 4.03278 39.754 4.03278Z" fill="white"/>
<path d="M39.754 7.39349H30.3442C29.9728 7.39349 29.6721 7.69408 29.6721 8.06565C29.6721 8.43723 29.9727 8.73781 30.3442 8.73781H39.754C40.1255 8.73781 40.4262 8.43723 40.4262 8.06565C40.4262 7.69408 40.1256 7.39349 39.754 7.39349V7.39349Z" fill="white"/>
<path d="M39.754 10.754H30.3442C29.9728 10.754 29.6721 11.0546 29.6721 11.4262C29.6721 11.7978 29.9727 12.0983 30.3442 12.0983H39.754C40.1255 12.0983 40.4262 11.7978 40.4262 11.4262C40.4262 11.0546 40.1256 10.754 39.754 10.754Z" fill="white"/>
<path d="M36.394 10H33.7054C33.334 10 33.0333 10.3006 33.0333 10.6722V13.3607C33.0333 13.7322 33.3339 14.0329 33.7054 14.0329H36.394C36.7655 14.0329 37.0662 13.7323 37.0662 13.3607V10.6722C37.0662 10.3006 36.7655 10 36.394 10ZM35.7218 12.6885H34.3776V11.3442H35.7218V12.6885Z" fill="white"/>
</g>
<defs>
<clipPath id="clip0">
<rect width="173" height="24" fill="white"/>
</clipPath>
</defs>
</svg>
