<svg width="195" height="150" viewBox="0 0 195 150" fill="none" xmlns="http://www.w3.org/2000/svg">
<circle cx="97" cy="75" r="73" stroke="black" stroke-width="4"/>
<path d="M105.518 82.2769V97H104.07V82.2769H100.229V80.8955H109.359V82.2769H105.518ZM111.673 97V80.8955H120.736V82.2769H113.121V88.2627H119.287V89.644H113.121V95.6187H120.736V97H111.673ZM132.337 93.2715C132.337 93.818 132.232 94.3309 132.022 94.8101C131.82 95.2892 131.539 95.7085 131.18 96.0679C130.821 96.4272 130.401 96.7118 129.922 96.9214C129.443 97.1235 128.93 97.2246 128.384 97.2246H127.238C126.692 97.2246 126.175 97.1235 125.688 96.9214C125.209 96.7118 124.79 96.4272 124.43 96.0679C124.071 95.7085 123.787 95.2892 123.577 94.8101C123.375 94.3309 123.274 93.818 123.274 93.2715V84.624C123.274 84.0775 123.375 83.5646 123.577 83.0854C123.787 82.6063 124.071 82.187 124.43 81.8276C124.79 81.4683 125.209 81.1875 125.688 80.9854C126.175 80.7757 126.692 80.6709 127.238 80.6709H128.384C128.93 80.6709 129.443 80.7757 129.922 80.9854C130.401 81.1875 130.821 81.4683 131.18 81.8276C131.539 82.187 131.82 82.6063 132.022 83.0854C132.232 83.5646 132.337 84.0775 132.337 84.624V85.2754L130.888 85.5V84.624C130.888 84.2646 130.821 83.9315 130.686 83.6245C130.551 83.3101 130.368 83.0368 130.136 82.8047C129.903 82.5726 129.63 82.3892 129.316 82.2544C129.009 82.1196 128.676 82.0522 128.316 82.0522H127.305C126.946 82.0522 126.609 82.1196 126.295 82.2544C125.988 82.3892 125.714 82.5726 125.475 82.8047C125.243 83.0368 125.059 83.3101 124.925 83.6245C124.79 83.9315 124.722 84.2646 124.722 84.624V93.2715C124.722 93.6309 124.79 93.9678 124.925 94.2822C125.059 94.5892 125.243 94.8625 125.475 95.1021C125.714 95.3341 125.988 95.5176 126.295 95.6523C126.609 95.7871 126.946 95.8545 127.305 95.8545H128.316C128.676 95.8545 129.009 95.7871 129.316 95.6523C129.63 95.5176 129.903 95.3341 130.136 95.1021C130.368 94.8625 130.551 94.5892 130.686 94.2822C130.821 93.9678 130.888 93.6309 130.888 93.2715V92.3955L132.337 92.6313V93.2715ZM143.185 97V89.644H137.02V97H135.571V80.8955H137.02V88.2627H143.185V80.8955H144.634V97H143.185Z" fill="black"/>
<path d="M49.7 93.249H44.6013L43.5457 97H42.0408L46.7576 80.8955H47.5213L52.2605 97H50.7669L49.7 93.249ZM44.9944 91.8677H49.3181L47.1956 84.4443L47.1507 83.8491L47.1057 84.4443L44.9944 91.8677ZM62.6263 97L55.9104 85.2754L55.7757 84.5791V97H54.3269V80.8955H55.0794L61.7952 92.6313L61.9412 93.3164V80.8955H63.3899V97H62.6263ZM76.1477 93.0469C76.1477 93.5934 76.0429 94.1063 75.8333 94.5854C75.6311 95.0646 75.3504 95.4839 74.991 95.8433C74.6316 96.2026 74.2086 96.4871 73.722 96.6968C73.2428 96.8989 72.7299 97 72.1834 97H67.0847V80.8955H72.1834C72.7299 80.8955 73.2428 81.0003 73.722 81.21C74.2086 81.4121 74.6316 81.6929 74.991 82.0522C75.3504 82.4116 75.6311 82.8346 75.8333 83.3213C76.0429 83.8005 76.1477 84.3133 76.1477 84.8599V93.0469ZM74.699 84.8599C74.699 84.5005 74.6316 84.1673 74.4969 83.8604C74.3621 83.5459 74.1749 83.2726 73.9353 83.0405C73.7032 82.8009 73.43 82.6138 73.1155 82.479C72.8085 82.3442 72.4754 82.2769 72.116 82.2769H68.5335V95.6187H72.116C72.4754 95.6187 72.8085 95.5513 73.1155 95.4165C73.43 95.2817 73.7032 95.0983 73.9353 94.8662C74.1749 94.6341 74.3621 94.3646 74.4969 94.0576C74.6316 93.7432 74.699 93.4062 74.699 93.0469V84.8599ZM87.1648 97L82.7962 90.127H80.8084V97H79.3596V80.8955H84.4695C85.0161 80.8955 85.5289 81.0003 86.0081 81.21C86.4873 81.4121 86.9065 81.6929 87.2659 82.0522C87.6253 82.4116 87.906 82.8346 88.1082 83.3213C88.3178 83.8005 88.4226 84.3133 88.4226 84.8599V86.1626C88.4226 86.7091 88.3178 87.2257 88.1082 87.7124C87.906 88.1916 87.6253 88.6108 87.2659 88.9702C86.9065 89.3296 86.4873 89.6141 86.0081 89.8237C85.5289 90.0259 85.0161 90.127 84.4695 90.127L88.8382 97H87.1648ZM86.9739 84.8599C86.9739 84.5005 86.9065 84.1673 86.7718 83.8604C86.637 83.5459 86.4536 83.2726 86.2215 83.0405C85.9894 82.8009 85.7161 82.6138 85.4016 82.479C85.0947 82.3442 84.7615 82.2769 84.4021 82.2769H80.8084V88.7456H84.4021C84.7615 88.7456 85.0947 88.6782 85.4016 88.5435C85.7161 88.4087 85.9894 88.2253 86.2215 87.9932C86.4536 87.7536 86.637 87.4803 86.7718 87.1733C86.9065 86.8589 86.9739 86.522 86.9739 86.1626V84.8599ZM97.6541 93.249H92.5555L91.4998 97H89.9949L94.7117 80.8955H95.4754L100.215 97H98.721L97.6541 93.249ZM92.9485 91.8677H97.2722L95.1497 84.4443L95.1048 83.8491L95.0598 84.4443L92.9485 91.8677Z" fill="black"/>
<path d="M49.7 93.249L49.8924 93.1943L49.851 93.049H49.7V93.249ZM44.6013 93.249V93.049H44.4499L44.4088 93.1948L44.6013 93.249ZM43.5457 97V97.2H43.6972L43.7382 97.0542L43.5457 97ZM42.0408 97L41.8489 96.9438L41.7738 97.2H42.0408V97ZM46.7576 80.8955V80.6955H46.6078L46.5657 80.8393L46.7576 80.8955ZM47.5213 80.8955L47.7131 80.839L47.6709 80.6955H47.5213V80.8955ZM52.2605 97V97.2H52.5279L52.4524 96.9435L52.2605 97ZM50.7669 97L50.5745 97.0547L50.6158 97.2H50.7669V97ZM44.9944 91.8677L44.802 91.813L44.7296 92.0677H44.9944V91.8677ZM49.3181 91.8677V92.0677H49.5833L49.5104 91.8127L49.3181 91.8677ZM47.1956 84.4443L46.9962 84.4594L46.9977 84.4797L47.0033 84.4993L47.1956 84.4443ZM47.1507 83.8491L47.3501 83.8341H46.9512L47.1507 83.8491ZM47.1057 84.4443L47.2981 84.499L47.3037 84.4796L47.3052 84.4594L47.1057 84.4443ZM49.7 93.049H44.6013V93.449H49.7V93.049ZM44.4088 93.1948L43.3532 96.9458L43.7382 97.0542L44.7939 93.3032L44.4088 93.1948ZM43.5457 96.8H42.0408V97.2H43.5457V96.8ZM42.2327 97.0562L46.9495 80.9517L46.5657 80.8393L41.8489 96.9438L42.2327 97.0562ZM46.7576 81.0955H47.5213V80.6955H46.7576V81.0955ZM47.3294 80.952L52.0687 97.0565L52.4524 96.9435L47.7131 80.839L47.3294 80.952ZM52.2605 96.8H50.7669V97.2H52.2605V96.8ZM50.9592 96.9453L49.8924 93.1943L49.5076 93.3037L50.5745 97.0547L50.9592 96.9453ZM44.9944 92.0677H49.3181V91.6677H44.9944V92.0677ZM49.5104 91.8127L47.3879 84.3894L47.0033 84.4993L49.1259 91.9227L49.5104 91.8127ZM47.395 84.4293L47.3501 83.8341L46.9512 83.8642L46.9962 84.4594L47.395 84.4293ZM46.9512 83.8341L46.9063 84.4293L47.3052 84.4594L47.3501 83.8642L46.9512 83.8341ZM46.9134 84.3896L44.802 91.813L45.1868 91.9224L47.2981 84.499L46.9134 84.3896ZM62.6263 97L62.4527 97.0994L62.5103 97.2H62.6263V97ZM55.9104 85.2754L55.7141 85.3134L55.7204 85.346L55.7369 85.3748L55.9104 85.2754ZM55.7757 84.5791L55.972 84.5411L55.5757 84.5791H55.7757ZM55.7757 97V97.2H55.9757V97H55.7757ZM54.3269 97H54.1269V97.2H54.3269V97ZM54.3269 80.8955V80.6955H54.1269V80.8955H54.3269ZM55.0794 80.8955L55.253 80.7962L55.1954 80.6955H55.0794V80.8955ZM61.7952 92.6313L61.9908 92.5897L61.9843 92.5591L61.9688 92.532L61.7952 92.6313ZM61.9412 93.3164L61.7456 93.3581L62.1412 93.3164H61.9412ZM61.9412 80.8955V80.6955H61.7412V80.8955H61.9412ZM63.3899 80.8955H63.5899V80.6955H63.3899V80.8955ZM63.3899 97V97.2H63.5899V97H63.3899ZM62.7998 96.9006L56.084 85.176L55.7369 85.3748L62.4527 97.0994L62.7998 96.9006ZM56.1068 85.2374L55.972 84.5411L55.5793 84.6171L55.7141 85.3134L56.1068 85.2374ZM55.5757 84.5791V97H55.9757V84.5791H55.5757ZM55.7757 96.8H54.3269V97.2H55.7757V96.8ZM54.5269 97V80.8955H54.1269V97H54.5269ZM54.3269 81.0955H55.0794V80.6955H54.3269V81.0955ZM54.9058 80.9948L61.6216 92.7307L61.9688 92.532L55.253 80.7962L54.9058 80.9948ZM61.5996 92.673L61.7456 93.3581L62.1368 93.2747L61.9908 92.5897L61.5996 92.673ZM62.1412 93.3164V80.8955H61.7412V93.3164H62.1412ZM61.9412 81.0955H63.3899V80.6955H61.9412V81.0955ZM63.1899 80.8955V97H63.5899V80.8955H63.1899ZM63.3899 96.8H62.6263V97.2H63.3899V96.8ZM75.8333 94.5854L75.65 94.5053L75.649 94.5077L75.8333 94.5854ZM73.722 96.6968L73.7997 96.8811L73.8011 96.8805L73.722 96.6968ZM67.0847 97H66.8847V97.2H67.0847V97ZM67.0847 80.8955V80.6955H66.8847V80.8955H67.0847ZM73.722 81.21L73.6418 81.3932L73.6452 81.3947L73.722 81.21ZM75.8333 83.3213L75.6486 83.398L75.6501 83.4015L75.8333 83.3213ZM74.4969 83.8604L74.313 83.9391L74.3137 83.9407L74.4969 83.8604ZM73.9353 83.0405L73.7916 83.1798L73.7962 83.1842L73.9353 83.0405ZM73.1155 82.479L73.0351 82.6621L73.0367 82.6628L73.1155 82.479ZM68.5335 82.2769V82.0769H68.3335V82.2769H68.5335ZM68.5335 95.6187H68.3335V95.8187H68.5335V95.6187ZM73.1155 95.4165L73.0367 95.2327L73.0351 95.2334L73.1155 95.4165ZM73.9353 94.8662L73.7962 94.7225L73.7939 94.7248L73.9353 94.8662ZM74.4969 94.0576L74.68 94.138L74.6807 94.1364L74.4969 94.0576ZM75.9477 93.0469C75.9477 93.5671 75.8481 94.0525 75.6501 94.5053L76.0165 94.6656C76.2377 94.16 76.3477 93.6197 76.3477 93.0469H75.9477ZM75.649 94.5077C75.4567 94.9636 75.1903 95.3612 74.8496 95.7018L75.1324 95.9847C75.5105 95.6066 75.8056 95.1656 76.0176 94.6632L75.649 94.5077ZM74.8496 95.7018C74.5089 96.0426 74.1072 96.313 73.6428 96.5131L73.8011 96.8805C74.31 96.6612 74.7544 96.3627 75.1324 95.9847L74.8496 95.7018ZM73.6442 96.5125C73.1909 96.7037 72.7046 96.8 72.1834 96.8V97.2C72.7552 97.2 73.2947 97.0941 73.7997 96.8811L73.6442 96.5125ZM72.1834 96.8H67.0847V97.2H72.1834V96.8ZM67.2847 97V80.8955H66.8847V97H67.2847ZM67.0847 81.0955H72.1834V80.6955H67.0847V81.0955ZM72.1834 81.0955C72.7036 81.0955 73.189 81.1951 73.6418 81.3932L73.8021 81.0267C73.2965 80.8055 72.7563 80.6955 72.1834 80.6955V81.0955ZM73.6452 81.3947C74.1086 81.5871 74.5094 81.8535 74.8496 82.1937L75.1324 81.9108C74.7538 81.5322 74.3086 81.2371 73.7987 81.0253L73.6452 81.3947ZM74.8496 82.1937C75.1897 82.5338 75.4561 82.9346 75.6486 83.398L76.018 83.2446C75.8062 82.7346 75.511 82.2894 75.1324 81.9108L74.8496 82.1937ZM75.6501 83.4015C75.8481 83.8542 75.9477 84.3396 75.9477 84.8599H76.3477C76.3477 84.287 76.2377 83.7467 76.0165 83.2411L75.6501 83.4015ZM75.9477 84.8599V93.0469H76.3477V84.8599H75.9477ZM74.899 84.8599C74.899 84.4748 74.8267 84.114 74.68 83.78L74.3137 83.9407C74.4366 84.2206 74.499 84.5261 74.499 84.8599H74.899ZM74.6807 83.7816C74.5358 83.4434 74.3336 83.1479 74.0745 82.8969L73.7962 83.1842C74.0162 83.3973 74.1884 83.6484 74.313 83.9391L74.6807 83.7816ZM74.079 82.9014C73.828 82.6422 73.5325 82.4401 73.1943 82.2952L73.0367 82.6628C73.3274 82.7874 73.5785 82.9596 73.7917 83.1797L74.079 82.9014ZM73.1959 82.2959C72.8618 82.1492 72.501 82.0769 72.116 82.0769V82.4769C72.4497 82.4769 72.7553 82.5393 73.0351 82.6621L73.1959 82.2959ZM72.116 82.0769H68.5335V82.4769H72.116V82.0769ZM68.3335 82.2769V95.6187H68.7335V82.2769H68.3335ZM68.5335 95.8187H72.116V95.4187H68.5335V95.8187ZM72.116 95.8187C72.501 95.8187 72.8618 95.7463 73.1959 95.5996L73.0351 95.2334C72.7553 95.3562 72.4497 95.4187 72.116 95.4187V95.8187ZM73.1943 95.6003C73.5311 95.456 73.8259 95.2585 74.0768 95.0076L73.7939 94.7248C73.5806 94.9381 73.3288 95.1075 73.0367 95.2327L73.1943 95.6003ZM74.0745 95.0099C74.3328 94.7596 74.5349 94.4686 74.68 94.138L74.3137 93.9772C74.1893 94.2606 74.017 94.5086 73.7962 94.7226L74.0745 95.0099ZM74.6807 94.1364C74.8267 93.7958 74.899 93.4319 74.899 93.0469H74.499C74.499 93.3806 74.4366 93.6905 74.313 93.9788L74.6807 94.1364ZM74.899 93.0469V84.8599H74.499V93.0469H74.899ZM87.1648 97L86.996 97.1073L87.055 97.2H87.1648V97ZM82.7962 90.127L82.965 90.0197L82.906 89.927H82.7962V90.127ZM80.8084 90.127V89.927H80.6084V90.127H80.8084ZM80.8084 97V97.2H81.0084V97H80.8084ZM79.3596 97H79.1596V97.2H79.3596V97ZM79.3596 80.8955V80.6955H79.1596V80.8955H79.3596ZM86.0081 81.21L85.9279 81.3932L85.9303 81.3942L86.0081 81.21ZM88.1082 83.3213L87.9235 83.398L87.925 83.4015L88.1082 83.3213ZM88.1082 87.7124L87.9245 87.6333L87.9239 87.6347L88.1082 87.7124ZM86.0081 89.8237L86.0858 90.008L86.0883 90.007L86.0081 89.8237ZM84.4695 90.127V89.927H84.1054L84.3007 90.2342L84.4695 90.127ZM88.8382 97V97.2H89.2023L89.007 96.8927L88.8382 97ZM86.7718 83.8604L86.5879 83.9391L86.5886 83.9407L86.7718 83.8604ZM86.2215 83.0405L86.0778 83.1797L86.08 83.1819L86.2215 83.0405ZM85.4016 82.479L85.3212 82.6621L85.3229 82.6628L85.4016 82.479ZM80.8084 82.2769V82.0769H80.6084V82.2769H80.8084ZM80.8084 88.7456H80.6084V88.9456H80.8084V88.7456ZM85.4016 88.5435L85.3229 88.3596L85.3212 88.3603L85.4016 88.5435ZM86.2215 87.9932L86.3629 88.1346L86.3651 88.1323L86.2215 87.9932ZM86.7718 87.1733L86.9549 87.2537L86.9556 87.2521L86.7718 87.1733ZM87.3336 96.8927L82.965 90.0197L82.6274 90.2342L86.996 97.1073L87.3336 96.8927ZM82.7962 89.927H80.8084V90.327H82.7962V89.927ZM80.6084 90.127V97H81.0084V90.127H80.6084ZM80.8084 96.8H79.3596V97.2H80.8084V96.8ZM79.5596 97V80.8955H79.1596V97H79.5596ZM79.3596 81.0955H84.4695V80.6955H79.3596V81.0955ZM84.4695 81.0955C84.9897 81.0955 85.4752 81.1951 85.9279 81.3932L86.0883 81.0267C85.5827 80.8055 85.0424 80.6955 84.4695 80.6955V81.0955ZM85.9303 81.3942C86.3863 81.5866 86.7838 81.853 87.1245 82.1937L87.4073 81.9108C87.0293 81.5328 86.5882 81.2376 86.0858 81.0257L85.9303 81.3942ZM87.1245 82.1937C87.4646 82.5338 87.731 82.9346 87.9235 83.398L88.2929 83.2446C88.0811 82.7346 87.7859 82.2894 87.4073 81.9108L87.1245 82.1937ZM87.925 83.4015C88.123 83.8542 88.2226 84.3396 88.2226 84.8599H88.6226C88.6226 84.287 88.5126 83.7467 88.2914 83.2411L87.925 83.4015ZM88.2226 84.8599V86.1626H88.6226V84.8599H88.2226ZM88.2226 86.1626C88.2226 86.6828 88.123 87.1724 87.9245 87.6333L88.2919 87.7915C88.5126 87.2791 88.6226 86.7355 88.6226 86.1626H88.2226ZM87.9239 87.6347C87.7316 88.0906 87.4652 88.4881 87.1245 88.8288L87.4073 89.1116C87.7854 88.7336 88.0805 88.2925 88.2925 87.7901L87.9239 87.6347ZM87.1245 88.8288C86.7833 89.17 86.3849 89.4406 85.9279 89.6405L86.0883 90.007C86.5896 89.7876 87.0298 89.4892 87.4073 89.1116L87.1245 88.8288ZM85.9303 89.6395C85.477 89.8307 84.9907 89.927 84.4695 89.927V90.327C85.0414 90.327 85.5808 90.2211 86.0858 90.008L85.9303 89.6395ZM84.3007 90.2342L88.6694 97.1073L89.007 96.8927L84.6383 90.0197L84.3007 90.2342ZM88.8382 96.8H87.1648V97.2H88.8382V96.8ZM87.1739 84.8599C87.1739 84.4748 87.1016 84.114 86.9549 83.78L86.5886 83.9407C86.7115 84.2206 86.7739 84.5261 86.7739 84.8599H87.1739ZM86.9556 83.7816C86.8112 83.4447 86.6137 83.15 86.3629 82.8991L86.08 83.1819C86.2934 83.3953 86.4628 83.6471 86.5879 83.9391L86.9556 83.7816ZM86.3651 82.9014C86.1141 82.6422 85.8186 82.4401 85.4804 82.2952L85.3229 82.6628C85.6136 82.7874 85.8646 82.9596 86.0778 83.1797L86.3651 82.9014ZM85.482 82.2959C85.1479 82.1492 84.7872 82.0769 84.4021 82.0769V82.4769C84.7358 82.4769 85.0414 82.5393 85.3212 82.6621L85.482 82.2959ZM84.4021 82.0769H80.8084V82.4769H84.4021V82.0769ZM80.6084 82.2769V88.7456H81.0084V82.2769H80.6084ZM80.8084 88.9456H84.4021V88.5456H80.8084V88.9456ZM84.4021 88.9456C84.7872 88.9456 85.1479 88.8733 85.482 88.7266L85.3212 88.3603C85.0414 88.4832 84.7358 88.5456 84.4021 88.5456V88.9456ZM85.4804 88.7273C85.8173 88.5829 86.112 88.3854 86.3629 88.1346L86.08 87.8517C85.8667 88.0651 85.6149 88.2345 85.3229 88.3596L85.4804 88.7273ZM86.3651 88.1323C86.6138 87.8756 86.8106 87.5824 86.9549 87.2537L86.5886 87.0929C86.4634 87.3782 86.2933 87.6316 86.0778 87.854L86.3651 88.1323ZM86.9556 87.2521C87.1016 86.9115 87.1739 86.5477 87.1739 86.1626H86.7739C86.7739 86.4963 86.7115 86.8062 86.5879 87.0946L86.9556 87.2521ZM87.1739 86.1626V84.8599H86.7739V86.1626H87.1739ZM97.6541 93.249L97.8465 93.1943L97.8051 93.049H97.6541V93.249ZM92.5555 93.249V93.049H92.404L92.3629 93.1948L92.5555 93.249ZM91.4998 97V97.2H91.6513L91.6923 97.0542L91.4998 97ZM89.9949 97L89.803 96.9438L89.7279 97.2H89.9949V97ZM94.7117 80.8955V80.6955H94.5619L94.5198 80.8393L94.7117 80.8955ZM95.4754 80.8955L95.6672 80.839L95.625 80.6955H95.4754V80.8955ZM100.215 97V97.2H100.482L100.406 96.9435L100.215 97ZM98.721 97L98.5286 97.0547L98.5699 97.2H98.721V97ZM92.9485 91.8677L92.7561 91.813L92.6837 92.0677H92.9485V91.8677ZM97.2722 91.8677V92.0677H97.5374L97.4645 91.8127L97.2722 91.8677ZM95.1497 84.4443L94.9503 84.4594L94.9518 84.4797L94.9574 84.4993L95.1497 84.4443ZM95.1048 83.8491L95.3042 83.8341H94.9053L95.1048 83.8491ZM95.0598 84.4443L95.2522 84.499L95.2578 84.4796L95.2593 84.4594L95.0598 84.4443ZM97.6541 93.049H92.5555V93.449H97.6541V93.049ZM92.3629 93.1948L91.3073 96.9458L91.6923 97.0542L92.748 93.3032L92.3629 93.1948ZM91.4998 96.8H89.9949V97.2H91.4998V96.8ZM90.1868 97.0562L94.9036 80.9517L94.5198 80.8393L89.803 96.9438L90.1868 97.0562ZM94.7117 81.0955H95.4754V80.6955H94.7117V81.0955ZM95.2835 80.952L100.023 97.0565L100.406 96.9435L95.6672 80.839L95.2835 80.952ZM100.215 96.8H98.721V97.2H100.215V96.8ZM98.9133 96.9453L97.8465 93.1943L97.4617 93.3037L98.5286 97.0547L98.9133 96.9453ZM92.9485 92.0677H97.2722V91.6677H92.9485V92.0677ZM97.4645 91.8127L95.342 84.3894L94.9574 84.4993L97.08 91.9227L97.4645 91.8127ZM95.3491 84.4293L95.3042 83.8341L94.9053 83.8642L94.9503 84.4594L95.3491 84.4293ZM94.9053 83.8341L94.8604 84.4293L95.2593 84.4594L95.3042 83.8642L94.9053 83.8341ZM94.8675 84.3896L92.7561 91.813L93.1409 91.9224L95.2522 84.499L94.8675 84.3896Z" fill="black"/>
<path d="M71.5737 109.893C71.5737 110.201 71.5144 110.491 71.3959 110.762C71.2817 111.033 71.123 111.27 70.9199 111.473C70.7167 111.676 70.4798 111.837 70.2089 111.956C69.9381 112.07 69.6482 112.127 69.3393 112.127H68.6918C68.3829 112.127 68.0909 112.07 67.8159 111.956C67.545 111.837 67.308 111.676 67.1049 111.473C66.9018 111.27 66.741 111.033 66.6225 110.762C66.5082 110.491 66.4511 110.201 66.4511 109.893V105.005C66.4511 104.696 66.5082 104.406 66.6225 104.135C66.741 103.864 66.9018 103.627 67.1049 103.424C67.308 103.221 67.545 103.062 67.8159 102.948C68.0909 102.83 68.3829 102.771 68.6918 102.771H69.3393C69.6482 102.771 69.9381 102.83 70.2089 102.948C70.4798 103.062 70.7167 103.221 70.9199 103.424C71.123 103.627 71.2817 103.864 71.3959 104.135C71.5144 104.406 71.5737 104.696 71.5737 105.005V105.373L70.7548 105.5V105.005C70.7548 104.802 70.7167 104.613 70.6406 104.44C70.5644 104.262 70.4607 104.108 70.3295 103.977C70.1983 103.845 70.0439 103.742 69.8661 103.666C69.6926 103.589 69.5043 103.551 69.3012 103.551H68.7299C68.5268 103.551 68.3364 103.589 68.1586 103.666C67.9851 103.742 67.8307 103.845 67.6953 103.977C67.5641 104.108 67.4604 104.262 67.3842 104.44C67.308 104.613 67.27 104.802 67.27 105.005V109.893C67.27 110.096 67.308 110.286 67.3842 110.464C67.4604 110.637 67.5641 110.792 67.6953 110.927C67.8307 111.058 67.9851 111.162 68.1586 111.238C68.3364 111.314 68.5268 111.353 68.7299 111.353H69.3012C69.5043 111.353 69.6926 111.314 69.8661 111.238C70.0439 111.162 70.1983 111.058 70.3295 110.927C70.4607 110.792 70.5644 110.637 70.6406 110.464C70.7167 110.286 70.7548 110.096 70.7548 109.893V109.397L71.5737 109.531V109.893ZM78.3911 109.893C78.3911 110.201 78.3318 110.491 78.2133 110.762C78.0991 111.033 77.9404 111.27 77.7372 111.473C77.5341 111.676 77.2971 111.837 77.0263 111.956C76.7555 112.07 76.4656 112.127 76.1567 112.127H75.5092C75.2003 112.127 74.9083 112.07 74.6332 111.956C74.3624 111.837 74.1254 111.676 73.9223 111.473C73.7192 111.27 73.5584 111.033 73.4399 110.762C73.3256 110.491 73.2685 110.201 73.2685 109.893V105.005C73.2685 104.696 73.3256 104.406 73.4399 104.135C73.5584 103.864 73.7192 103.627 73.9223 103.424C74.1254 103.221 74.3624 103.062 74.6332 102.948C74.9083 102.83 75.2003 102.771 75.5092 102.771H76.1567C76.4656 102.771 76.7555 102.83 77.0263 102.948C77.2971 103.062 77.5341 103.221 77.7372 103.424C77.9404 103.627 78.0991 103.864 78.2133 104.135C78.3318 104.406 78.3911 104.696 78.3911 105.005V109.893ZM77.5722 105.005C77.5722 104.802 77.5341 104.613 77.4579 104.44C77.3818 104.262 77.2781 104.108 77.1469 103.977C77.0157 103.845 76.8613 103.742 76.6835 103.666C76.51 103.589 76.3217 103.551 76.1186 103.551H75.5473C75.3442 103.551 75.1537 103.589 74.976 103.666C74.8025 103.742 74.6481 103.845 74.5126 103.977C74.3814 104.108 74.2778 104.262 74.2016 104.44C74.1254 104.613 74.0873 104.802 74.0873 105.005V109.893C74.0873 110.096 74.1254 110.286 74.2016 110.464C74.2778 110.637 74.3814 110.792 74.5126 110.927C74.6481 111.058 74.8025 111.162 74.976 111.238C75.1537 111.314 75.3442 111.353 75.5473 111.353H76.1186C76.3217 111.353 76.51 111.314 76.6835 111.238C76.8613 111.162 77.0157 111.058 77.1469 110.927C77.2781 110.792 77.3818 110.637 77.4579 110.464C77.5341 110.286 77.5722 110.096 77.5722 109.893V105.005ZM85.9511 112V105.76L85.894 106.147L83.7802 112H83.3486L81.2158 106.147L81.165 105.76V112H80.3461V102.897H80.7714L83.5327 110.362L83.558 110.699L83.5834 110.362L86.3383 102.897H86.77V112H85.9511ZM93.9745 106.268C93.9745 106.577 93.9153 106.867 93.7968 107.138C93.6826 107.409 93.5239 107.646 93.3207 107.849C93.1176 108.052 92.8785 108.213 92.6035 108.331C92.3326 108.445 92.0427 108.502 91.7338 108.502H89.6708V112H88.852V102.897H91.7338C92.0427 102.897 92.3326 102.957 92.6035 103.075C92.8785 103.189 93.1176 103.348 93.3207 103.551C93.5239 103.754 93.6826 103.993 93.7968 104.269C93.9153 104.539 93.9745 104.829 93.9745 105.138V106.268ZM93.1557 105.138C93.1557 104.935 93.1176 104.747 93.0414 104.573C92.9653 104.396 92.8595 104.241 92.7241 104.11C92.5929 103.974 92.4384 103.869 92.2607 103.792C92.0872 103.716 91.8989 103.678 91.6957 103.678H89.6708V107.722H91.6957C91.8989 107.722 92.0872 107.684 92.2607 107.607C92.4384 107.531 92.5929 107.428 92.7241 107.296C92.8595 107.165 92.9653 107.013 93.0414 106.839C93.1176 106.662 93.1557 106.471 93.1557 106.268V105.138ZM100.532 109.893C100.532 110.201 100.472 110.491 100.354 110.762C100.24 111.033 100.081 111.27 99.8779 111.473C99.6747 111.676 99.4378 111.837 99.1669 111.956C98.8961 112.07 98.6062 112.127 98.2973 112.127H97.6498C97.3409 112.127 97.0489 112.07 96.7739 111.956C96.503 111.837 96.2661 111.676 96.0629 111.473C95.8598 111.27 95.699 111.033 95.5805 110.762C95.4662 110.491 95.4091 110.201 95.4091 109.893V102.897H96.228V109.893C96.228 110.096 96.2661 110.286 96.3422 110.464C96.4184 110.637 96.5221 110.792 96.6533 110.927C96.7887 111.058 96.9431 111.162 97.1166 111.238C97.2944 111.314 97.4848 111.353 97.6879 111.353H98.2592C98.4623 111.353 98.6507 111.314 98.8242 111.238C99.0019 111.162 99.1564 111.058 99.2875 110.927C99.4187 110.792 99.5224 110.637 99.5986 110.464C99.6747 110.286 99.7128 110.096 99.7128 109.893V102.897H100.532V109.893ZM104.696 103.678V112H103.877V103.678H101.706V102.897H106.867V103.678H104.696ZM108.174 112V102.897H108.993V112H108.174ZM115.772 112L111.977 105.373L111.9 104.979V112H111.081V102.897H111.507L115.303 109.531L115.385 109.918V102.897H116.204V112H115.772ZM123.282 112H123.021L122.545 111.27C122.346 111.532 122.105 111.742 121.822 111.898C121.538 112.051 121.223 112.127 120.876 112.127H120.4C120.091 112.127 119.799 112.07 119.524 111.956C119.253 111.837 119.016 111.676 118.813 111.473C118.61 111.27 118.449 111.033 118.331 110.762C118.216 110.491 118.159 110.201 118.159 109.893V105.005C118.159 104.696 118.216 104.406 118.331 104.135C118.449 103.864 118.61 103.627 118.813 103.424C119.016 103.221 119.253 103.062 119.524 102.948C119.799 102.83 120.091 102.771 120.4 102.771H121.047C121.356 102.771 121.646 102.83 121.917 102.948C122.188 103.062 122.425 103.221 122.628 103.424C122.831 103.627 122.99 103.864 123.104 104.135C123.222 104.406 123.282 104.696 123.282 105.005V105.373L122.463 105.5V105.005C122.463 104.802 122.425 104.613 122.349 104.44C122.272 104.262 122.169 104.108 122.038 103.977C121.906 103.845 121.752 103.742 121.574 103.666C121.401 103.589 121.212 103.551 121.009 103.551H120.438C120.235 103.551 120.044 103.589 119.867 103.666C119.693 103.742 119.539 103.845 119.403 103.977C119.272 104.108 119.168 104.262 119.092 104.44C119.016 104.613 118.978 104.802 118.978 105.005V109.893C118.978 110.096 119.016 110.286 119.092 110.464C119.168 110.637 119.272 110.792 119.403 110.927C119.539 111.058 119.693 111.162 119.867 111.238C120.044 111.314 120.235 111.353 120.438 111.353H121.009C121.212 111.353 121.401 111.314 121.574 111.238C121.752 111.162 121.906 111.058 122.038 110.927C122.169 110.792 122.272 110.637 122.349 110.464C122.425 110.286 122.463 110.096 122.463 109.893V107.995H121.009V107.214H123.282V112Z" fill="black"/>
<path d="M98.1998 68.2078L95.9812 64.8801C95.7755 64.5714 95.4287 64.3862 95.0583 64.3862H79.5291C79.1587 64.3862 78.8121 64.5714 78.6062 64.8803L76.3878 68.208C76.1615 68.5479 76.1399 68.9855 76.3326 69.3463C76.5253 69.7072 76.9011 69.9323 77.3106 69.9323H97.2768C97.6865 69.9323 98.062 69.7066 98.2548 69.346C98.4479 68.9856 98.4259 68.5481 98.1998 68.2078ZM79.3831 67.7139L80.1228 66.6046H94.4649L95.2047 67.7139H79.3831Z" fill="black"/>
<path d="M109.478 37.7647H65.1093C64.4962 37.7647 64 38.2608 64 38.874V65.4955C64 66.1085 64.4961 66.6048 65.1093 66.6048H109.479C110.092 66.6048 110.588 66.1087 110.588 65.4955V38.874C110.588 38.2608 110.092 37.7647 109.478 37.7647ZM108.369 64.3862H66.2184V39.9831H108.369V64.3862H108.369Z" fill="black"/>
<path d="M130.554 30H112.806C112.193 30 111.697 30.4961 111.697 31.1093V67.7139C111.697 68.3269 112.193 68.8231 112.806 68.8231H130.554C131.167 68.8231 131.663 68.3271 131.663 67.7139V31.1093C131.663 30.4962 131.167 30 130.554 30ZM129.444 66.6046H113.915V32.2186H129.444V66.6046Z" fill="black"/>
<path d="M129.444 36.6554H113.915C113.302 36.6554 112.806 37.1515 112.806 37.7647C112.806 38.3779 113.302 38.874 113.915 38.874H129.444C130.058 38.874 130.554 38.3779 130.554 37.7647C130.554 37.1515 130.058 36.6554 129.444 36.6554Z" fill="black"/>
<path d="M129.444 42.2017H113.915C113.302 42.2017 112.806 42.6977 112.806 43.3109C112.806 43.9242 113.302 44.4202 113.915 44.4202H129.444C130.058 44.4202 130.554 43.9242 130.554 43.3109C130.554 42.6977 130.058 42.2017 129.444 42.2017Z" fill="black"/>
<path d="M129.444 47.7477H113.915C113.302 47.7477 112.806 48.2438 112.806 48.857C112.806 49.4702 113.302 49.9663 113.915 49.9663H129.444C130.058 49.9663 130.554 49.4702 130.554 48.857C130.554 48.2438 130.058 47.7477 129.444 47.7477Z" fill="black"/>
</svg>
