<svg width="72" height="52" viewBox="0 0 72 52" fill="none" xmlns="http://www.w3.org/2000/svg">
<path d="M71.9857 28.7472C71.8996 26.7532 69.9486 25.1608 66.1757 24.0132C63.2493 23.1381 59.5338 22.6073 55.517 22.5212V7.21462C55.5027 6.9564 55.431 6.71252 55.3019 6.49734C54.9002 4.76154 52.9635 3.35568 49.535 2.3228C46.3072 1.34731 42.0897 0.816528 37.6569 0.816528C33.2385 0.816528 29.064 1.34731 25.8936 2.3228C23.2971 3.12615 20.1841 4.61808 20.1841 7.18593C20.1841 7.34373 20.1984 7.50153 20.2271 7.65933L20.3849 14.2009C11.0604 12.422 2.06575 18.5476 0.301255 27.8578C0.100418 28.9193 0 29.9809 0 31.0568C0 40.5248 7.70353 48.2284 17.1715 48.2284C21.1166 48.2284 24.9325 46.8799 27.988 44.3838C30.6707 45.015 33.8267 45.3593 37.1692 45.388C37.9008 49.3617 46.5081 51.1835 54.5272 51.1835C58.9456 51.1835 63.1201 50.6384 66.2905 49.6486C68.887 48.8452 72 47.3389 72 44.7711V29.0198C72 28.9337 72 28.8333 71.9857 28.7472ZM52.5188 15.1477C52.5188 15.3342 51.8302 16.324 48.7173 17.2708C45.8051 18.1459 41.7741 18.6623 37.6713 18.6623C34.1279 18.6623 30.6563 18.2893 27.902 17.5864C27.8589 17.5721 27.8302 17.5721 27.7872 17.5577C26.4244 16.4818 24.9181 15.6211 23.2971 15.0186L23.1967 10.9731C24.1865 11.4752 25.2194 11.8769 26.2953 12.1638C29.4083 13.0676 33.4393 13.5553 37.6713 13.5553C42.0897 13.5553 46.3216 13.0245 49.5493 12.049C50.6252 11.7334 51.6724 11.3174 52.6623 10.801V14.5595C52.5045 14.7603 52.5188 14.9468 52.5188 15.1477ZM26.7543 5.09148C29.6521 4.20206 33.5254 3.69997 37.6569 3.69997C41.7597 3.69997 45.7908 4.20206 48.7029 5.09148C51.8159 6.03829 52.5045 7.01378 52.5045 7.20027C52.5045 7.40111 51.8016 8.39095 48.6886 9.3234C45.7765 10.1985 41.7597 10.7006 37.6569 10.7006C33.6976 10.7006 29.939 10.2415 27.0843 9.40948C24 8.52006 23.1393 7.54456 23.0675 7.22896C23.0675 7.20027 23.0532 7.20027 23.0532 7.20027C23.0675 6.92771 23.7274 6.00959 26.7543 5.09148ZM26.7974 41.6438C20.9588 46.9516 11.9068 46.5356 6.59892 40.697C1.29109 34.8584 1.70711 25.8064 7.54573 20.4985C10.171 18.1028 13.6139 16.7831 17.1715 16.7831C18.6061 16.7831 20.0263 16.9982 21.4035 17.4143C26.3814 18.9636 30.1255 23.0951 31.1871 28.1877C31.3736 29.1345 31.474 30.11 31.474 31.0712C31.4883 35.1022 29.7812 38.9325 26.7974 41.6438ZM30.4411 41.9594C31.6031 40.5392 32.5356 38.9468 33.1955 37.2397C34.4148 37.3401 35.6772 37.4119 36.997 37.4262V37.6844L37.0831 42.5476C34.8595 42.5189 32.636 42.318 30.4411 41.9594ZM34.2714 29.364C35.1034 29.4214 35.9785 29.4501 36.8679 29.4645L36.954 34.5428C35.9498 34.5284 34.96 34.4854 34.0132 34.4137C34.2283 33.3091 34.3431 32.1758 34.3431 31.0568C34.3431 30.4973 34.3144 29.9379 34.2714 29.364ZM37.8004 26.6097C37.7573 26.6097 37.6999 26.6097 37.6569 26.6097C36.2797 26.6097 34.9456 26.5523 33.7119 26.4663C33.1668 24.544 32.306 22.7364 31.1441 21.1297C33.2959 21.4023 35.462 21.5458 37.6426 21.5458C42.0753 21.5458 46.3072 21.015 49.535 20.0395C50.6109 19.7239 51.6438 19.3079 52.6336 18.8058V22.5643C46.4794 22.7364 40.153 24.0275 37.8004 26.6097ZM39.694 28.8906C39.694 28.8763 39.694 28.862 39.7083 28.8333C39.8374 28.4459 40.8559 27.4991 43.8255 26.6671C46.6085 25.8781 50.2379 25.4477 54.0538 25.4477H54.2977C58.4005 25.4477 62.4172 25.9211 65.3437 26.8106C68.3993 27.7287 69.1166 28.6755 69.1309 28.8906V28.905C69.1166 29.1202 68.3993 30.11 65.2146 31.0568C62.2738 31.9319 58.4005 32.4053 54.312 32.4053C50.3527 32.4053 46.5941 31.9462 43.7394 31.1285C40.6551 30.2391 39.8087 29.2493 39.7227 28.948C39.694 28.8906 39.694 28.8906 39.694 28.8906ZM65.4585 46.9229C62.5607 47.8267 58.673 48.3288 54.5415 48.3288C50.3957 48.3288 46.5224 47.841 43.6533 46.966C40.6264 46.0335 39.9952 45.0724 39.9952 44.8572C39.9952 44.8428 39.9952 44.8428 39.9952 44.8285L39.9235 40.6683C41.0711 41.2278 42.2618 41.6581 43.4955 41.9737C46.5081 42.7627 50.3383 43.2074 54.269 43.2074C58.7017 43.2074 62.905 42.6767 66.1184 41.7012C67.1656 41.3856 68.1698 40.9695 69.1309 40.4818V44.7854H69.1452C69.1452 44.9863 68.4854 45.9761 65.4585 46.9229ZM69.1596 36.3647H69.1452C69.1452 36.5081 69.0592 36.6802 69.0592 36.8381C69.0592 37.0389 68.3849 38.0144 65.2863 38.9612C62.3455 39.8506 58.4292 40.3383 54.2833 40.3383C46.3359 40.3383 40.9851 38.5452 39.8661 37.1537L39.8518 35.9486L39.7944 32.6492C40.7986 33.1513 41.8458 33.5529 42.9217 33.8542C46.0347 34.758 50.0658 35.2457 54.2977 35.2457C58.6587 35.2457 62.8189 34.7293 66.0179 33.7825C67.1082 33.4812 68.1554 33.0652 69.1596 32.5487V36.3647Z" fill="white"/>
</svg>
