<svg width="54" height="51" viewBox="0 0 54 51" fill="none" xmlns="http://www.w3.org/2000/svg">
<path d="M27 0C23.5206 0 20.7 2.6639 20.7 5.95C20.7039 9.23451 23.5223 11.8963 27 11.9C30.4794 11.9 33.3 9.2361 33.3 5.95C33.3 2.6639 30.4794 0 27 0ZM27 10.2C24.5148 10.2 22.5 8.29717 22.5 5.95C22.5029 3.604 24.516 1.70276 27 1.7C29.4852 1.7 31.5 3.60283 31.5 5.95C31.5 8.29717 29.4852 10.2 27 10.2Z" fill="white"/>
<path d="M29.7 12.75H24.3C19.8286 12.7547 16.205 16.177 16.2 20.4V34.85H19.8V51H21.6V31.45H19.8V33.15H18V20.4C18.0039 17.1155 20.8223 14.4537 24.3 14.45H29.7C33.1777 14.4537 35.9961 17.1155 36 20.4V33.15H34.2V31.45H32.4V51H34.2V34.85H37.8V20.4C37.7951 16.177 34.1714 12.7547 29.7 12.75Z" fill="white"/>
<path d="M27.9 34.85H26.1V51H27.9V34.85Z" fill="white"/>
<path d="M45 8.5C42.0176 8.5 39.6 10.7833 39.6 13.6C39.6029 16.4155 42.0188 18.6972 45 18.7C47.9823 18.7 50.4 16.4167 50.4 13.6C50.4 10.7833 47.9823 8.5 45 8.5ZM45 17C43.0118 17 41.4 15.4778 41.4 13.6C41.4 11.7222 43.0118 10.2 45 10.2C46.9882 10.2 48.6 11.7222 48.6 13.6C48.6 15.4778 46.9882 17 45 17Z" fill="white"/>
<path d="M47.7 19.55H39.6V21.25H47.7C50.184 21.2528 52.197 23.154 52.2 25.5V36.55H50.4V34.85H48.6V51H50.4V38.25H54V25.5C53.996 22.2155 51.1777 19.5537 47.7 19.55Z" fill="white"/>
<path d="M39.6 34.85V36.55H36V38.25H39.6V51H41.4V34.85H39.6Z" fill="white"/>
<path d="M45.9 38.25H44.1V51H45.9V38.25Z" fill="white"/>
<path d="M8.99998 8.5C6.0176 8.5 3.59998 10.7833 3.59998 13.6C3.6029 16.4155 6.01884 18.6972 8.99998 18.7C11.9823 18.7 14.4 16.4167 14.4 13.6C14.4 10.7833 11.9823 8.5 8.99998 8.5ZM8.99998 17C7.01176 17 5.39998 15.4778 5.39998 13.6C5.39998 11.7222 7.01176 10.2 8.99998 10.2C10.9882 10.2 12.6 11.7222 12.6 13.6C12.6 15.4778 10.9882 17 8.99998 17Z" fill="white"/>
<path d="M6.3 19.55C2.82229 19.5537 0.0039375 22.2155 0 25.5V38.25H3.6V51H5.4V34.85H3.6V36.55H1.8V25.5C1.80293 23.154 3.816 21.2528 6.3 21.25H14.4V19.55H6.3Z" fill="white"/>
<path d="M14.4 36.55V34.85H12.6V51H14.4V38.25H18V36.55H14.4Z" fill="white"/>
<path d="M9.89997 38.25H8.09998V51H9.89997V38.25Z" fill="white"/>
</svg>
