<svg width="40" height="40" viewBox="0 0 40 40" fill="none" xmlns="http://www.w3.org/2000/svg">
<path d="M20 40C15.2645 40 10.6714 38.3153 7.06695 35.2562C6.22063 34.5384 5.42672 33.7425 4.7075 32.8909C1.67164 29.2925 0 24.7146 0 20C0 14.6577 2.08031 9.63531 5.85781 5.85781C9.63531 2.08031 14.6577 0 20 0C25.3423 0 30.3647 2.08031 34.1422 5.85781C37.9197 9.63531 40 14.6577 40 20C40 24.7147 38.3284 29.2926 35.2929 32.8905C34.5733 33.7425 33.7794 34.5384 32.9328 35.2564C29.3286 38.3153 24.7355 40 20 40ZM20 2.5C10.3505 2.5 2.5 10.3505 2.5 20C2.5 24.1254 3.96242 28.1308 6.61789 31.2784C7.24758 32.0239 7.94297 32.721 8.68438 33.3499C11.8378 36.0262 15.8563 37.5 20 37.5C24.1437 37.5 28.1622 36.0262 31.3154 33.3501C32.057 32.721 32.7524 32.0238 33.3825 31.2778C36.0376 28.1309 37.5 24.1255 37.5 20C37.5 10.3505 29.6495 2.5 20 2.5Z" fill="white"/>
<path d="M20 20C15.8645 20 12.5 16.6355 12.5 12.5C12.5 8.36445 15.8645 5 20 5C24.1355 5 27.5 8.36445 27.5 12.5C27.5 16.6355 24.1355 20 20 20ZM20 7.5C17.243 7.5 15 9.74297 15 12.5C15 15.257 17.243 17.5 20 17.5C22.757 17.5 25 15.257 25 12.5C25 9.74297 22.757 7.5 20 7.5Z" fill="white"/>
<path d="M32.1252 35.5534C32.0244 35.5534 31.922 35.5412 31.8198 35.5155C31.1503 35.3475 30.7437 34.6684 30.9118 33.9988C31.1362 33.1048 31.25 32.18 31.25 31.25C31.25 25.134 26.2777 20.0886 20.1646 20.0008L20 20L19.8354 20.0008C13.7223 20.0886 8.75 25.134 8.75 31.25C8.75 32.18 8.86383 33.1048 9.0882 33.9988C9.25625 34.6684 8.84969 35.3475 8.18016 35.5155C7.51063 35.6836 6.83148 35.2771 6.66344 34.6075C6.38906 33.5146 6.25 32.385 6.25 31.25C6.25 27.6111 7.65758 24.181 10.2134 21.5914C12.7668 19.0044 16.1732 17.5517 19.8052 17.5009C19.811 17.5009 19.8168 17.5009 19.8227 17.5009L20 17.5L20.1773 17.5008C20.1832 17.5008 20.189 17.5008 20.1948 17.5009C23.8268 17.5516 27.2332 19.0043 29.7866 21.5913C32.3424 24.181 33.75 27.6111 33.75 31.25C33.75 32.385 33.6109 33.5146 33.3366 34.6075C33.1941 35.1748 32.6848 35.5534 32.1252 35.5534Z" fill="white"/>
</svg>
