<svg width="26" height="26" viewBox="0 0 26 26" fill="none" xmlns="http://www.w3.org/2000/svg">
<path d="M13 0C5.82029 0 0 5.82029 0 13C0 20.1797 5.82029 25.9999 13 25.9999C20.1797 25.9999 25.9999 20.1797 25.9999 13C25.9923 5.8235 20.1765 0.00767159 13 0ZM20.1565 9.01363L10.8708 18.2994C10.5081 18.6619 9.92035 18.6619 9.55777 18.2994L5.84347 14.5851C5.47458 14.2288 5.46435 13.641 5.82062 13.2721C6.17688 12.9032 6.76471 12.893 7.1336 13.2492C7.14133 13.2567 7.14894 13.2643 7.15645 13.2721L10.2143 16.3299L18.8435 7.70064C19.2124 7.34438 19.8002 7.35461 20.1565 7.72344C20.504 8.0833 20.504 8.65377 20.1565 9.01363Z" fill="#0057A9"/>
</svg>
