<svg width="512" height="352" viewBox="0 0 512 352" fill="none" xmlns="http://www.w3.org/2000/svg">
<path d="M490.24 33.92C476.352 9.216 461.28 4.672 430.592 2.944C399.936 0.864 322.848 0 256.064 0C189.152 0 112.032 0.864002 81.408 2.912C50.784 4.672 35.68 9.184 21.664 33.92C7.36 58.592 0 101.088 0 175.904C0 175.968 0 176 0 176C0 176.064 0 176.096 0 176.096V176.16C0 250.656 7.36 293.472 21.664 317.888C35.68 342.592 50.752 347.072 81.376 349.152C112.032 350.944 189.152 352 256.064 352C322.848 352 399.936 350.944 430.624 349.184C461.312 347.104 476.384 342.624 490.272 317.92C504.704 293.504 512 250.688 512 176.192C512 176.192 512 176.096 512 176.032C512 176.032 512 175.968 512 175.936C512 101.088 504.704 58.592 490.24 33.92ZM192 272V80L352 176L192 272Z" fill="white"/>
</svg>
